<svg width="19" height="18" viewBox="0 0 19 18" fill="none" xmlns="http://www.w3.org/2000/svg">
<path d="M13.5264 0.333008C12.6827 0.333008 11.8764 0.532906 11.1298 0.927189C10.6216 1.19553 10.1547 1.55206 9.75416 1.97507C9.35355 1.55206 8.88672 1.19553 8.37851 0.927189C7.63191 0.532906 6.82557 0.333008 5.9819 0.333008C3.07335 0.333008 0.707031 2.77879 0.707031 5.78506C0.707031 7.91434 1.79504 10.1758 3.94079 12.5067C5.73238 14.4529 7.92585 16.0752 9.45044 17.0935L9.75416 17.2964L10.0579 17.0935C11.5825 16.0753 13.7759 14.4529 15.5676 12.5067C17.7133 10.1758 18.8013 7.91434 18.8013 5.78506C18.8013 2.77879 16.435 0.333008 13.5264 0.333008ZM14.7567 11.7093C13.1555 13.4486 11.2052 14.9272 9.75416 15.9169C8.30315 14.9272 6.35277 13.4486 4.75164 11.7093C2.81048 9.60071 1.82626 7.60751 1.82626 5.78506C1.82626 3.41666 3.69049 1.48983 5.98194 1.48983C7.30117 1.48983 8.51304 2.11617 9.30673 3.2082L9.75416 3.82383L10.2016 3.2082C10.9953 2.11617 12.2071 1.48983 13.5264 1.48983C15.8178 1.48983 17.6821 3.41666 17.6821 5.78506C17.6821 7.60751 16.6978 9.60071 14.7567 11.7093Z" fill="#FF2525"/>
<path d="M14.7567 11.7093C13.1555 13.4486 11.2052 14.9272 9.75416 15.9169C8.30315 14.9272 6.35277 13.4486 4.75164 11.7093C2.81048 9.60071 1.82626 7.60751 1.82626 5.78506C1.82626 3.41666 3.69049 1.48983 5.98194 1.48983C7.30117 1.48983 8.51304 2.11617 9.30673 3.2082L9.75416 3.82383L10.2016 3.2082C10.9953 2.11617 12.2071 1.48983 13.5264 1.48983C15.8178 1.48983 17.6821 3.41666 17.6821 5.78506C17.6821 7.60751 16.6978 9.60071 14.7567 11.7093Z" fill="#FF2525"/>
</svg>
