<svg width="31" height="31" viewBox="0 0 31 31" fill="none" xmlns="http://www.w3.org/2000/svg">
<path d="M25.0385 23.8078C24.3311 23.8078 23.6395 24.0173 23.0513 24.4097C22.4631 24.8021 22.0046 25.3598 21.7339 26.0124C21.4631 26.6649 21.3923 27.383 21.5303 28.0757C21.6683 28.7684 22.009 29.4048 22.5092 29.9042C23.0095 30.4036 23.6468 30.7438 24.3407 30.8815C25.0345 31.0193 25.7538 30.9486 26.4074 30.6783C27.061 30.408 27.6196 29.9503 28.0126 29.363C28.4057 28.7758 28.6155 28.0853 28.6155 27.379C28.6144 26.4322 28.2372 25.5244 27.5666 24.8549C26.8961 24.1854 25.9869 23.8089 25.0385 23.8078ZM25.0385 28.5694C24.8027 28.5694 24.5722 28.4996 24.3761 28.3688C24.18 28.238 24.0272 28.0521 23.937 27.8345C23.8467 27.617 23.8231 27.3777 23.8691 27.1468C23.9151 26.9158 24.0287 26.7037 24.1954 26.5373C24.3622 26.3708 24.5746 26.2574 24.8059 26.2115C25.0372 26.1655 25.2769 26.1891 25.4948 26.2792C25.7127 26.3693 25.8989 26.5219 26.0299 26.7176C26.1609 26.9134 26.2308 27.1436 26.2308 27.379C26.2304 27.6946 26.1047 27.9971 25.8812 28.2203C25.6576 28.4434 25.3546 28.569 25.0385 28.5694Z" fill="white"/>
<path d="M17.8847 23.8078H8.34617C8.02995 23.8078 7.72668 23.6824 7.50308 23.4592C7.27948 23.2359 7.15386 22.9331 7.15386 22.6174C7.15386 22.3017 7.27948 21.9989 7.50308 21.7757C7.72668 21.5525 8.02995 21.427 8.34617 21.427H27.4231C27.7053 21.427 27.9784 21.3271 28.1937 21.145C28.409 20.9629 28.5527 20.7105 28.5991 20.4326L30.9837 6.14789C31.0122 5.97735 31.0032 5.80266 30.9572 5.63597C30.9113 5.46927 30.8295 5.31458 30.7175 5.18264C30.6056 5.0507 30.4663 4.94468 30.3091 4.87197C30.152 4.79925 29.9809 4.76157 29.8078 4.76156H10.7308C10.4146 4.76156 10.1113 4.88698 9.8877 5.11022C9.6641 5.33346 9.53848 5.63624 9.53848 5.95196C9.53848 6.26767 9.6641 6.57045 9.8877 6.79369C10.1113 7.01693 10.4146 7.14235 10.7308 7.14235H28.4L26.413 19.0463H11.5568L4.69353 0.772445C4.60823 0.545563 4.45563 0.350059 4.25612 0.212038C4.0566 0.0740161 3.81966 4.46698e-05 3.57693 0H1.19231C0.87609 0 0.572821 0.125416 0.34922 0.348657C0.125618 0.571899 0 0.87468 0 1.19039C0 1.5061 0.125618 1.80888 0.34922 2.03212C0.572821 2.25537 0.87609 2.38078 1.19231 2.38078H2.75078L9.01041 19.0463H8.34617C7.4774 19.0401 6.63627 19.3508 5.98082 19.9202C5.32537 20.4895 4.90071 21.2782 4.78663 22.1381C4.67256 22.998 4.87692 23.8699 5.36132 24.5899C5.84572 25.31 6.57682 25.8287 7.41724 26.0485C7.19312 26.5862 7.10388 27.1704 7.15728 27.7503C7.21068 28.3303 7.40511 28.8885 7.72367 29.3763C8.04223 29.8642 8.47529 30.2671 8.98523 30.5499C9.49517 30.8327 10.0666 30.987 10.6498 30.9992C11.233 31.0115 11.8104 30.8814 12.3318 30.6202C12.8532 30.359 13.3028 29.9747 13.6416 29.5006C13.9805 29.0266 14.1982 28.4771 14.276 27.8999C14.3538 27.3227 14.2893 26.7352 14.088 26.1886H17.8847C18.2009 26.1886 18.5041 26.0632 18.7277 25.8399C18.9513 25.6167 19.077 25.3139 19.077 24.9982C19.077 24.6825 18.9513 24.3797 18.7277 24.1565C18.5041 23.9332 18.2009 23.8078 17.8847 23.8078ZM11.9231 27.379C11.9231 27.6144 11.8532 27.8446 11.7222 28.0403C11.5912 28.2361 11.4049 28.3887 11.1871 28.4788C10.9692 28.5689 10.7295 28.5924 10.4982 28.5465C10.2669 28.5006 10.0545 28.3872 9.8877 28.2207C9.72096 28.0543 9.6074 27.8421 9.56139 27.6112C9.51539 27.3803 9.539 27.141 9.62924 26.9235C9.71949 26.7059 9.87231 26.52 10.0684 26.3892C10.2645 26.2584 10.495 26.1886 10.7308 26.1886C11.0469 26.189 11.3499 26.3146 11.5734 26.5377C11.7969 26.7609 11.9227 27.0634 11.9231 27.379Z" fill="white"/>
</svg>
