<svg width="18" height="20" viewBox="0 0 18 20" fill="none" xmlns="http://www.w3.org/2000/svg">
<path d="M13.4653 1.94219C13.4653 1.6923 13.3661 1.45265 13.1894 1.27596C13.0127 1.09927 12.773 1 12.5232 1H7.81223L7.702 1.0066C7.46354 1.03496 7.2449 1.15331 7.09077 1.33746C6.93664 1.52161 6.85864 1.75767 6.87271 1.9974C6.88679 2.23713 6.99187 2.46244 7.16649 2.6273C7.34111 2.79215 7.57209 2.8841 7.81223 2.88437H12.5232L12.6334 2.87777C12.8626 2.85077 13.0739 2.7406 13.2272 2.56815C13.3806 2.39569 13.4653 2.17296 13.4653 1.94219ZM8.28333 7.1242C8.5141 7.12423 8.73684 7.20896 8.90929 7.36231C9.08174 7.51566 9.19192 7.72696 9.21892 7.95615L9.22551 8.06639V14.6617C9.22525 14.9018 9.13329 15.1328 8.96844 15.3074C8.80359 15.482 8.57828 15.5871 8.33854 15.6012C8.09881 15.6153 7.86276 15.5373 7.6786 15.3831C7.49445 15.229 7.3761 15.0104 7.34774 14.7719L7.34114 14.6617V8.06639C7.34114 7.8165 7.44041 7.57686 7.6171 7.40016C7.7938 7.22347 8.03344 7.1242 8.28333 7.1242ZM12.9877 7.95615C12.9593 7.71769 12.8409 7.49906 12.6568 7.34492C12.4726 7.19079 12.2366 7.11279 11.9969 7.12687C11.7571 7.14094 11.5318 7.24602 11.367 7.42064C11.2021 7.59526 11.1101 7.82624 11.1099 8.06639V14.6617L11.1165 14.7719C11.1448 15.0104 11.2632 15.229 11.4473 15.3831C11.6315 15.5373 11.8676 15.6153 12.1073 15.6012C12.347 15.5871 12.5723 15.482 12.7372 15.3074C12.902 15.1328 12.994 14.9018 12.9943 14.6617V8.06639L12.9877 7.95615Z" fill="#FF3F3F"/>
<path fill-rule="evenodd" clip-rule="evenodd" d="M16.4508 3.63281C16.6857 3.63307 16.9116 3.723 17.0824 3.88422C17.2532 4.04543 17.356 4.26577 17.3697 4.50022C17.3835 4.73466 17.3072 4.96551 17.1565 5.1456C17.0057 5.32569 16.7919 5.44143 16.5586 5.46917L16.4508 5.47562V15.611C16.4509 16.3161 16.1814 16.9945 15.6977 17.5075C15.2139 18.0205 14.5524 18.3293 13.8484 18.3706L13.6862 18.3752H6.314C5.6089 18.3751 4.9305 18.1056 4.41749 17.6219C3.90448 17.1383 3.59561 16.477 3.55402 15.7732L3.54941 15.611V5.47562C3.31454 5.47536 3.08862 5.38543 2.91783 5.22421C2.74704 5.063 2.64426 4.84266 2.63049 4.60821C2.61673 4.37377 2.69301 4.14292 2.84377 3.96283C2.99452 3.78274 3.20836 3.667 3.4416 3.63926L3.54941 3.63281H16.4508ZM5.39247 5.47562H14.6078V15.611L14.6013 15.7179C14.5749 15.9421 14.4672 16.1489 14.2985 16.299C14.1299 16.4491 13.912 16.5322 13.6862 16.5324H6.314L6.20618 16.526C5.9821 16.4994 5.77554 16.3916 5.62559 16.223C5.47564 16.0544 5.3927 15.8367 5.39247 15.611V5.47562Z" fill="#FF3F3F"/>
</svg>
