<svg width="20" height="18" viewBox="0 0 20 18" fill="none" xmlns="http://www.w3.org/2000/svg">
<path d="M11.0598 0.79455C10.5822 1.04671 10.1406 1.37426 9.75415 1.7601L8.44855 0.794544C7.68038 0.388872 6.85 0.183008 5.9819 0.183008C2.98587 0.183008 0.557031 2.70066 0.557031 5.78506C0.557031 7.96675 1.67137 10.2629 3.83043 12.6083C5.6336 14.5671 7.83816 16.197 9.36712 17.2182L9.67084 17.4211L9.75416 17.4768L9.83747 17.4211L10.1412 17.2182C11.6702 16.1971 13.8747 14.5671 15.6779 12.6083C17.837 10.2629 18.9513 7.96675 18.9513 5.78506C18.9513 2.70066 16.5224 0.183008 13.5264 0.183008C12.6583 0.183008 11.8279 0.388873 11.0598 0.79455ZM4.862 11.6077L4.75164 11.7093L4.86199 11.6077C2.93235 9.51162 1.97626 7.55336 1.97626 5.78506C1.97626 3.4948 3.77797 1.63983 5.98194 1.63983C7.25186 1.63983 8.41915 2.24212 9.18539 3.29639L9.63282 3.91201L9.75416 4.07896L9.8755 3.91201L10.3229 3.29639C11.0892 2.24212 12.2565 1.63983 13.5264 1.63983C15.7303 1.63983 17.5321 3.4948 17.5321 5.78506C17.5321 7.55336 16.5759 9.51162 14.6464 11.6077C13.0869 13.3016 11.1912 14.7493 9.75416 15.7351C8.31712 14.7492 6.42137 13.3016 4.862 11.6077Z" fill="#BBBBBB" stroke="#BBBBBB" stroke-width="0.3"/>
</svg>
