<svg width="16" height="20" viewBox="0 0 16 20" fill="none" xmlns="http://www.w3.org/2000/svg">
<path d="M15.9544 11.7097C15.71 8.72695 14.2287 6.85777 12.9219 5.20832C11.7118 3.68128 10.6667 2.36261 10.6667 0.41738C10.6667 0.26113 10.5733 0.118318 10.4253 0.0467163C10.2769 -0.025315 10.0985 -0.0135181 9.96354 0.078435C8.00088 1.39507 6.36329 3.61418 5.79125 5.73152C5.39412 7.20562 5.34158 8.86281 5.33421 9.9573C3.52171 9.59437 3.11113 7.05265 3.10679 7.02496C3.08638 6.89312 3.00046 6.77839 2.87546 6.71574C2.74917 6.6539 2.60071 6.64941 2.47267 6.70882C2.37762 6.75195 0.13975 7.81796 0.00954151 12.0743C0.000416512 12.2159 0 12.3579 0 12.4999C0 16.6349 3.58896 19.9994 8 19.9994C8.00608 19.9998 8.01258 20.0006 8.01779 19.9994C8.01779 19.9994 8.02125 19.9994 8.02342 19.9994C12.4236 19.9875 16 16.6276 16 12.4999C16 12.2919 15.9544 11.7097 15.9544 11.7097ZM8 19.1661C6.5295 19.1661 5.33333 17.9715 5.33333 16.5031C5.33333 16.4531 5.33292 16.4026 5.33679 16.3408C5.35458 15.7215 5.48004 15.2988 5.61763 15.0176C5.87546 15.5368 6.33638 16.0141 7.08508 16.0141C7.33075 16.0141 7.52954 15.8277 7.52954 15.5974C7.52954 15.0042 7.54258 14.3198 7.70012 13.7022C7.84033 13.1545 8.0755 10.9671 8.5 10.5C8.68879 11.1062 9.15675 13.2017 9.51612 13.6806C10.0305 14.3658 10.5621 15.0742 10.6555 16.2822C10.6611 16.3538 10.6668 16.4258 10.6668 16.5031C10.6667 17.9715 9.4705 19.1661 8 19.1661Z" fill="#EE0000"/>
<path d="M8 19.1661C6.5295 19.1661 5.33333 17.9715 5.33333 16.5031C5.33333 16.4531 5.33292 16.4026 5.33679 16.3408C5.35458 15.7215 5.48004 15.2988 5.61763 15.0176C5.87546 15.5368 6.33638 16.0141 7.08508 16.0141C7.33075 16.0141 7.52954 15.8277 7.52954 15.5974C7.52954 15.0042 7.54258 14.3198 7.70012 13.7022C7.84033 13.1545 8.0755 10.9671 8.5 10.5C8.68879 11.1062 9.15675 13.2017 9.51612 13.6806C10.0305 14.3658 10.5621 15.0742 10.6555 16.2822C10.6611 16.3538 10.6668 16.4258 10.6668 16.5031C10.6667 17.9715 9.4705 19.1661 8 19.1661Z" fill="#FBC100"/>
</svg>
