<svg width="18" height="19" viewBox="0 0 18 19" fill="none" xmlns="http://www.w3.org/2000/svg">
<path d="M7.49993 0.5H0.749925C0.337725 0.5 0 0.836825 0 1.24993V7.99993C0 8.41167 0.337725 8.75007 0.749925 8.75007H7.49993C7.91235 8.75007 8.25007 8.41167 8.25007 7.99993V1.24993C8.25007 0.836825 7.91235 0.5 7.49993 0.5Z" fill="white"/>
<path d="M17.2501 0.5H10.5001C10.0877 0.5 9.74992 0.836825 9.74992 1.24993V7.99993C9.74992 8.41167 10.0877 8.75007 10.5001 8.75007H17.2501C17.6623 8.75007 18 8.41167 18 7.99993V1.24993C18 0.836825 17.6623 0.5 17.2501 0.5Z" fill="white"/>
<path d="M7.49993 10.2499H0.749925C0.337725 10.2499 0 10.587 0 11.0001V17.7501C0 18.1616 0.337725 18.5 0.749925 18.5H7.49993C7.91235 18.5 8.25007 18.1616 8.25007 17.7501V11.0001C8.25007 10.587 7.91235 10.2499 7.49993 10.2499Z" fill="white"/>
<path d="M17.2501 10.2499H10.5001C10.0877 10.2499 9.74992 10.587 9.74992 11.0001V17.7501C9.74992 18.1616 10.0877 18.5 10.5001 18.5H17.2501C17.6623 18.5 18 18.1616 18 17.7501V11.0001C18 10.587 17.6623 10.2499 17.2501 10.2499Z" fill="white"/>
</svg>
