<svg width="31" height="28" viewBox="0 0 31 28" fill="none" xmlns="http://www.w3.org/2000/svg">
<path d="M29.45 7.77778H1.55C0.62 7.77778 0 7.15556 0 6.22222C0 5.28889 0.62 4.66667 1.55 4.66667H29.45C30.38 4.66667 31 5.28889 31 6.22222C31 7.15556 30.38 7.77778 29.45 7.77778Z" fill="white"/>
<path d="M24.8 12.4444C24.335 12.4444 24.025 12.2889 23.715 11.9778C23.095 11.3556 23.095 10.4222 23.715 9.8L27.28 6.22222L23.715 2.64444C23.095 2.02222 23.095 1.08889 23.715 0.466667C24.335 -0.155556 25.265 -0.155556 25.885 0.466667L30.535 5.13333C31.155 5.75556 31.155 6.68889 30.535 7.31111L25.885 11.9778C25.575 12.2889 25.265 12.4444 24.8 12.4444Z" fill="white"/>
<path d="M6.2 28C5.735 28 5.425 27.8444 5.115 27.5333L0.465 22.8667C-0.155 22.2444 -0.155 21.3111 0.465 20.6889L5.115 16.0222C5.735 15.4 6.665 15.4 7.285 16.0222C7.905 16.6444 7.905 17.5778 7.285 18.2L3.72 21.7778L7.285 25.3556C7.905 25.9778 7.905 26.9111 7.285 27.5333C6.975 27.8444 6.665 28 6.2 28Z" fill="white"/>
<path d="M29.45 23.3333H1.55C0.62 23.3333 0 22.7111 0 21.7778C0 20.8444 0.62 20.2222 1.55 20.2222H29.45C30.38 20.2222 31 20.8444 31 21.7778C31 22.7111 30.38 23.3333 29.45 23.3333Z" fill="white"/>
</svg>
