<svg width="21" height="21" viewBox="0 0 21 21" fill="none" xmlns="http://www.w3.org/2000/svg">
<path d="M0.871727 2.21934C0.795982 2.14398 0.735898 2.05452 0.694905 1.95606C0.653911 1.85761 0.632813 1.75208 0.632812 1.64551C0.632812 1.53894 0.653911 1.43341 0.694905 1.33495C0.735898 1.23649 0.795982 1.14703 0.871727 1.07167C0.947473 0.996317 1.0374 0.936541 1.13636 0.895758C1.23533 0.854975 1.3414 0.833984 1.44852 0.833984C1.55564 0.833984 1.66171 0.854975 1.76068 0.895758C1.85964 0.936541 1.94957 0.996317 2.02531 1.07167L10.41 9.41496L18.7946 1.07167C18.8704 0.996317 18.9603 0.936541 19.0593 0.895758C19.1582 0.854975 19.2643 0.833984 19.3714 0.833984C19.4785 0.833984 19.5846 0.854975 19.6836 0.895758C19.7825 0.936541 19.8725 0.996317 19.9482 1.07167C20.024 1.14703 20.084 1.23649 20.125 1.33495C20.166 1.43341 20.1871 1.53894 20.1871 1.64551C20.1871 1.75208 20.166 1.85761 20.125 1.95606C20.084 2.05452 20.024 2.14398 19.9482 2.21934L11.5619 10.561L19.9482 18.9027C20.024 18.978 20.084 19.0675 20.125 19.1659C20.166 19.2644 20.1871 19.3699 20.1871 19.4765C20.1871 19.5831 20.166 19.6886 20.125 19.7871C20.084 19.8855 20.024 19.975 19.9482 20.0503C19.8725 20.1257 19.7825 20.1855 19.6836 20.2262C19.5846 20.267 19.4785 20.288 19.3714 20.288C19.2643 20.288 19.1582 20.267 19.0593 20.2262C18.9603 20.1855 18.8704 20.1257 18.7946 20.0503L10.41 11.7071L2.02531 20.0503C1.94957 20.1257 1.85964 20.1855 1.76068 20.2262C1.66171 20.267 1.55564 20.288 1.44852 20.288C1.3414 20.288 1.23533 20.267 1.13636 20.2262C1.0374 20.1855 0.947473 20.1257 0.871727 20.0503C0.795982 19.975 0.735898 19.8855 0.694905 19.7871C0.653911 19.6886 0.632812 19.5831 0.632812 19.4765C0.632812 19.3699 0.653911 19.2644 0.694905 19.1659C0.735898 19.0675 0.795982 18.978 0.871727 18.9027L9.25802 10.561L0.871727 2.21934Z" fill="#020105"/>
</svg>
