<svg xmlns="http://www.w3.org/2000/svg" width="30" height="30" viewBox="0 0 30 30" fill="none">
  <path fill-rule="evenodd" clip-rule="evenodd" d="M15 20.6772C14.4825 20.6772 14.0625 20.2572 14.0625 19.7397V4.68848C14.0625 4.17098 14.4825 3.75098 15 3.75098C15.5175 3.75098 15.9375 4.17098 15.9375 4.68848V19.7397C15.9375 20.2572 15.5175 20.6772 15 20.6772Z" fill="#1F8A70"/>
  <path fill-rule="evenodd" clip-rule="evenodd" d="M15.0016 20.6763C14.7529 20.6763 14.5129 20.5775 14.3379 20.4L10.6929 16.7413C10.3279 16.3738 10.3291 15.78 10.6954 15.415C11.0629 15.05 11.6554 15.05 12.0204 15.4175L15.0016 18.4113L17.9829 15.4175C18.3479 15.05 18.9404 15.05 19.3079 15.415C19.6741 15.78 19.6754 16.3738 19.3104 16.7413L15.6654 20.4C15.4904 20.5775 15.2504 20.6763 15.0016 20.6763Z" fill="#1F8A70"/>
  <mask id="mask0_1961_132516" style="mask-type:luminance" maskUnits="userSpaceOnUse" x="2" y="9" width="26" height="18">
    <path fill-rule="evenodd" clip-rule="evenodd" d="M2.5 9.66504H27.4998V26.845H2.5V9.66504Z" fill="white"/>
  </mask>
  <g mask="url(#mask0_1961_132516)">
    <path fill-rule="evenodd" clip-rule="evenodd" d="M21.9688 26.845H8.04375C4.9875 26.845 2.5 24.3588 2.5 21.3013V15.195C2.5 12.145 4.98125 9.66504 8.0325 9.66504H9.20875C9.72625 9.66504 10.1463 10.085 10.1463 10.6025C10.1463 11.12 9.72625 11.54 9.20875 11.54H8.0325C6.015 11.54 4.375 13.1788 4.375 15.195V21.3013C4.375 23.325 6.02 24.97 8.04375 24.97H21.9688C23.9837 24.97 25.625 23.3288 25.625 21.3138V15.2088C25.625 13.185 23.9788 11.54 21.9575 11.54H20.7925C20.275 11.54 19.855 11.12 19.855 10.6025C19.855 10.085 20.275 9.66504 20.7925 9.66504H21.9575C25.0138 9.66504 27.5 12.1525 27.5 15.2088V21.3138C27.5 24.3638 25.0175 26.845 21.9688 26.845Z" fill="#1F8A70"/>
  </g>
</svg>