<svg width="9" height="5" viewBox="0 0 9 5" fill="none" xmlns="http://www.w3.org/2000/svg">
<path fill-rule="evenodd" clip-rule="evenodd" d="M0.507565 0.188705C0.614624 0.0716752 0.759807 0.00593166 0.911188 0.00593166C1.06257 0.00593166 1.20775 0.0716752 1.31481 0.188705L4.33656 3.49288L7.35831 0.190577C7.41097 0.130954 7.47397 0.0833976 7.54362 0.0506811C7.61327 0.0179647 7.68818 0.000743843 7.76399 2.35699e-05C7.83979 -0.000696703 7.91496 0.0150978 7.98513 0.0464858C8.05529 0.0778738 8.11903 0.124227 8.17263 0.182839C8.22623 0.241452 8.26863 0.311152 8.29733 0.38787C8.32604 0.464588 8.34048 0.546789 8.33982 0.629677C8.33916 0.712565 8.32341 0.79448 8.29349 0.870641C8.26357 0.946802 8.22008 1.01569 8.16556 1.07327L4.74018 4.81692C4.68716 4.87496 4.6242 4.921 4.55489 4.95242C4.48559 4.98383 4.4113 5 4.33627 5C4.26125 5 4.18696 4.98383 4.11766 4.95242C4.04835 4.921 3.98539 4.87496 3.93237 4.81692L0.506994 1.0714C0.399968 0.954333 0.339844 0.795581 0.339844 0.630051C0.339844 0.464522 0.399968 0.305769 0.506994 0.188705H0.507565Z" fill="#1C1F22"/>
</svg>
