<svg width="18" height="19" viewBox="0 0 18 19" fill="none" xmlns="http://www.w3.org/2000/svg">
<path d="M17.0034 6.9602L6.62813 17.387C6.08855 17.9122 5.3794 18.2057 4.63941 18.2057H1.01656C0.816149 18.2057 0.631153 18.1285 0.492405 17.9895C0.353658 17.8504 0.291992 17.6651 0.291992 17.4643L0.384491 13.8033C0.399907 13.0773 0.692818 12.3976 1.20156 11.8878L8.55518 4.51955C8.67851 4.39597 8.89434 4.39597 9.01767 4.51955L11.5968 7.08841C11.7664 7.25679 12.0131 7.36646 12.2752 7.36646C12.8456 7.36646 13.2926 6.90305 13.2926 6.34695C13.2926 6.0689 13.1847 5.82174 13.0151 5.63638C12.9689 5.57459 10.5131 3.12931 10.5131 3.12931C10.3589 2.97483 10.3589 2.71223 10.5131 2.55776L11.546 1.50736C12.5018 0.549632 14.0434 0.549632 14.9992 1.50736L17.0034 3.51549C17.9438 4.45776 17.9438 6.00248 17.0034 6.9602Z" fill="#00B2A9"/>
</svg>
