<svg width="145" height="20" viewBox="0 0 145 20" fill="none" xmlns="http://www.w3.org/2000/svg">
<path d="M0 0.0241076V19.9879H13.7098C15.5543 19.9879 17.3233 19.2792 18.6275 18.0177C19.9317 16.7561 20.6644 15.0451 20.6644 13.261V6.70283C20.6644 4.93152 19.937 3.23277 18.6421 1.98027C17.3472 0.727764 15.591 0.0241076 13.7597 0.0241076H0ZM13.7098 16.6606H3.43993V3.39964H13.7846C14.6903 3.39964 15.559 3.74765 16.1994 4.36712C16.8398 4.98659 17.1996 5.82677 17.1996 6.70283V13.3333C17.1865 14.2223 16.8113 15.0703 16.1556 15.6933C15.4998 16.3163 14.6165 16.6639 13.6974 16.6606H13.7098Z" fill="#00676C"/>
<path d="M27.5069 0.0361664H24.067V19.9879H27.5069V0.0361664Z" fill="#00676C"/>
<path d="M120.933 0V19.9518H117.518L117.506 19.9397L103.746 4.99096V19.9518H100.306V0H103.746L117.506 14.9367V0H120.933Z" fill="#00676C"/>
<path d="M75.591 19.9879H70.7177L61.9809 11.6697H58.5409V19.9879H55.1135V0.0361664H58.5409V8.34237H61.9809L70.8673 0.0361664H75.7405L65.2089 10.0904L75.591 19.9879Z" fill="#00676C"/>
<path d="M145 0.0120555V3.33936H136.413V20H132.973V3.33936H124.373V0.0120555H145Z" fill="#00676C"/>
<path d="M76.2391 6.82338V13.1887C76.2391 14.9899 76.978 16.7175 78.2935 17.9922C79.6091 19.267 81.3939 19.9848 83.256 19.9879H89.8367C91.701 19.9879 93.489 19.2716 94.8072 17.9965C96.1255 16.7214 96.8661 14.992 96.8661 13.1887V6.82338C96.8661 5.0201 96.1255 3.29069 94.8072 2.01558C93.489 0.740466 91.701 0.0241076 89.8367 0.0241076H83.256C81.3939 0.0273012 79.6091 0.745061 78.2935 2.01983C76.978 3.29459 76.2391 5.02219 76.2391 6.82338ZM89.9489 16.6606H83.256C82.7855 16.6719 82.3174 16.592 81.8794 16.4256C81.4413 16.2592 81.0421 16.0096 80.7053 15.6917C80.3685 15.3738 80.1009 14.9939 79.9182 14.5743C79.7355 14.1548 79.6414 13.7042 79.6416 13.2489V6.76311C79.6416 5.85827 80.0132 4.99049 80.6746 4.35068C81.3361 3.71086 82.2333 3.35142 83.1688 3.35142H89.8616C90.7971 3.35142 91.6942 3.71086 92.3557 4.35068C93.0172 4.99049 93.3888 5.85827 93.3888 6.76311V13.2489C93.3889 14.1475 93.0223 15.0099 92.3689 15.6487C91.7155 16.2875 90.828 16.6511 89.899 16.6606H89.9489Z" fill="#00676C"/>
<path d="M34.3743 5.84689C34.3743 6.50874 34.6461 7.14348 35.13 7.61147C35.6138 8.07946 36.27 8.34237 36.9542 8.34237H45.554C47.1506 8.34237 48.6817 8.95584 49.8107 10.0478C50.9396 11.1398 51.5738 12.6209 51.5738 14.1652C51.5738 15.7095 50.9396 17.1905 49.8107 18.2825C48.6817 19.3745 47.1506 19.9879 45.554 19.9879H31.8442V16.6606H45.554C46.2383 16.6606 46.8945 16.3977 47.3783 15.9297C47.8621 15.4617 48.1339 14.827 48.1339 14.1652C48.1339 13.5033 47.8621 12.8686 47.3783 12.4006C46.8945 11.9326 46.2383 11.6697 45.554 11.6697H36.9542C35.3576 11.6697 33.8265 11.0562 32.6975 9.96423C31.5686 8.87225 30.9343 7.39119 30.9343 5.84689C30.9376 4.30357 31.5729 2.82438 32.7012 1.73308C33.8294 0.641789 35.3587 0.027293 36.9542 0.0241076H49.8539V3.35142H36.9542C36.27 3.35142 35.6138 3.61434 35.13 4.08233C34.6461 4.55032 34.3743 5.18505 34.3743 5.84689Z" fill="#00676C"/>
</svg>
