<svg width="20" height="21" viewBox="0 0 20 21" fill="none" xmlns="http://www.w3.org/2000/svg">
<path d="M7.04704 15.5941C6.54342 15.5941 6.13272 15.7733 5.81494 16.1324C5.49661 16.4912 5.33799 16.942 5.33799 17.4832V21H8.57657V17.4832C8.57657 16.8791 8.4383 16.4129 8.16257 16.0856C7.88685 15.758 7.51491 15.5941 7.04704 15.5941Z" fill="#828282"/>
<path d="M4.02425 14.0825C4.27605 14.3093 4.47398 14.5301 4.6183 14.7434H4.70819C4.86351 14.5298 5.07958 14.3093 5.35586 14.0825C5.94332 13.642 6.62699 13.4215 7.4066 13.4215C8.35445 13.4215 9.16101 13.7964 9.82681 14.546C10.4926 15.2953 10.8258 16.2115 10.8258 17.2944V21H20L13.1174 0H6.88265L2.47602 13.4448C3.04423 13.5095 3.56077 13.7205 4.02425 14.0825Z" fill="#828282"/>
<path d="M3.08876 17.4829C3.08876 16.8788 2.95104 16.4126 2.67532 16.0853C2.44138 15.8082 2.13871 15.6495 1.7676 15.6071L0 20.9997H3.08876V17.4829Z" fill="#828282"/>
</svg>
