<svg xmlns="http://www.w3.org/2000/svg" width="119" height="16" viewBox="0 0 119 16" fill="none">
  <path d="M0 0.0192861V15.9904H11.2515C12.7652 15.9904 14.217 15.4234 15.2874 14.4141C16.3578 13.4049 16.9591 12.0361 16.9591 10.6088V5.36226C16.9591 3.94522 16.3621 2.58622 15.2994 1.58421C14.2367 0.582212 12.7954 0.0192861 11.2925 0.0192861H0ZM11.2515 13.3285H2.82311V2.71971H11.3129C12.0562 2.71971 12.7691 2.99812 13.2947 3.4937C13.8203 3.98927 14.1156 4.66142 14.1156 5.36226V10.6667C14.1048 11.3778 13.7969 12.0563 13.2587 12.5547C12.7206 13.053 11.9956 13.3311 11.2413 13.3285H11.2515Z" fill="#09454f"/>
  <path d="M22.5746 0.0289331H19.7515V15.9904H22.5746V0.0289331Z" fill="#09454f"/>
  <path d="M99.2485 0V15.9614H96.4459L96.4356 15.9518L85.1432 3.99277V15.9614H82.3201V0H85.1432L96.4356 11.9494V0H99.2485Z" fill="#09454f"/>
  <path d="M62.0367 15.9904H58.0373L50.867 9.33574H48.0439V15.9904H45.2311V0.0289331H48.0439V6.6739H50.867L58.1601 0.0289331H62.1595L53.5163 8.07233L62.0367 15.9904Z" fill="#09454f"/>
  <path d="M119 0.00964436V2.67149H111.952V16H109.129V2.67149H102.072V0.00964436H119Z" fill="#09454f"/>
  <path d="M62.5686 5.45871V10.5509C62.5686 11.9919 63.175 13.374 64.2547 14.3938C65.3344 15.4136 66.7991 15.9878 68.3274 15.9904H73.728C75.2581 15.9904 76.7254 15.4173 77.8073 14.3972C78.8892 13.3771 79.497 11.9936 79.497 10.5509V5.45871C79.497 4.01608 78.8892 2.63255 77.8073 1.61246C76.7254 0.592372 75.2581 0.0192861 73.728 0.0192861H68.3274C66.7991 0.021841 65.3344 0.596049 64.2547 1.61586C63.175 2.63567 62.5686 4.01775 62.5686 5.45871ZM73.8201 13.3285H68.3274C67.9412 13.3375 67.5571 13.2736 67.1975 13.1405C66.838 13.0073 66.5104 12.8077 66.234 12.5534C65.9576 12.299 65.738 11.9951 65.588 11.6595C65.4381 11.3238 65.3609 10.9633 65.361 10.5992V5.41049C65.361 4.68662 65.666 3.9924 66.2088 3.48054C66.7517 2.96869 67.488 2.68113 68.2557 2.68113H73.7485C74.5162 2.68113 75.2525 2.96869 75.7954 3.48054C76.3382 3.9924 76.6432 4.68662 76.6432 5.41049V10.5992C76.6433 11.318 76.3425 12.0079 75.8062 12.5189C75.27 13.03 74.5416 13.3209 73.7792 13.3285H73.8201Z" fill="#09454f"/>
  <path d="M28.2106 4.67752C28.2106 5.20699 28.4337 5.71478 28.8308 6.08918C29.2279 6.46357 29.7664 6.6739 30.3279 6.6739H37.3857C38.696 6.6739 39.9526 7.16467 40.8791 8.03826C41.8056 8.91185 42.3261 10.0967 42.3261 11.3321C42.3261 12.5676 41.8056 13.7524 40.8791 14.626C39.9526 15.4996 38.696 15.9904 37.3857 15.9904H26.1342V13.3285H37.3857C37.9473 13.3285 38.4858 13.1182 38.8829 12.7438C39.2799 12.3694 39.503 11.8616 39.503 11.3321C39.503 10.8027 39.2799 10.2949 38.8829 9.92047C38.4858 9.54607 37.9473 9.33575 37.3857 9.33575H30.3279C29.0177 9.33575 27.761 8.84497 26.8345 7.97138C25.908 7.0978 25.3875 5.91295 25.3875 4.67752C25.3902 3.44286 25.9116 2.2595 26.8375 1.38647C27.7634 0.513431 29.0185 0.0218344 30.3279 0.0192861H40.9146V2.68113H30.3279C29.7664 2.68113 29.2279 2.89147 28.8308 3.26586C28.4337 3.64026 28.2106 4.14804 28.2106 4.67752Z" fill="#09454f"/>
</svg>