<svg width="33" height="30" viewBox="0 0 33 30" fill="none" xmlns="http://www.w3.org/2000/svg">
<path d="M16.3377 29.2523L16.5 29.3567L16.6623 29.2523L17.1827 28.9174C19.8033 27.2312 23.5836 24.5385 26.6767 21.3014C30.3795 17.4262 32.3 13.6227 32.3 9.99924C32.3 4.87018 28.1104 0.7 22.9628 0.7C21.4705 0.7 20.0423 1.04097 18.7208 1.71339C17.9099 2.12588 17.1591 2.66019 16.5 3.28929C15.8409 2.66019 15.0901 2.12588 14.2792 1.71338C12.9576 1.04097 11.5295 0.7 10.0372 0.7C4.8896 0.7 0.7 4.87018 0.7 9.99924C0.7 13.6227 2.6206 17.4262 6.32334 21.3014C9.41636 24.5385 13.1967 27.2311 15.8173 28.9174L16.3377 29.2523ZM8.14633 19.5706L7.92943 19.7779L8.14633 19.5706C4.84337 16.114 3.21753 12.8951 3.21753 9.99924C3.21753 6.25681 6.27591 3.20946 10.0372 3.20946C12.2034 3.20946 14.1909 4.19922 15.4939 5.92652L16.2605 6.94267L16.5 7.26014L16.7395 6.94267L17.5061 5.92652C18.8091 4.19922 20.7966 3.20946 22.9628 3.20946C26.7241 3.20946 29.7825 6.25681 29.7825 9.99924C29.7825 12.8951 28.1566 16.114 24.8537 19.5706C22.1928 22.3555 18.9584 24.7375 16.5 26.3636C14.0416 24.7374 10.8072 22.3555 8.14633 19.5706Z" fill="white" stroke="white" stroke-width="0.6"/>
</svg>
