<svg xmlns="http://www.w3.org/2000/svg" width="22" height="22" viewBox="0 0 22 22" fill="none">
  <path fill-rule="evenodd" clip-rule="evenodd" d="M17.4827 17.4814C14.6813 20.2831 10.5329 20.8885 7.1382 19.3185C6.63705 19.1167 6.22618 18.9537 5.83558 18.9537C4.7476 18.9601 3.39339 20.015 2.68956 19.3121C1.98574 18.6082 3.04148 17.2529 3.04148 16.1583C3.04148 15.7677 2.88487 15.3641 2.68312 14.862C1.11241 11.4678 1.71858 7.31811 4.52005 4.51726C8.09628 0.939714 13.9065 0.939714 17.4827 4.51634C21.0654 8.09941 21.059 13.9047 17.4827 17.4814Z" stroke="#1F8A70" stroke-width="1.375" stroke-linecap="round" stroke-linejoin="round"/>
  <path d="M14.6124 11.3802H14.6207" stroke="#1F8A70" stroke-width="1.83333" stroke-linecap="round" stroke-linejoin="round"/>
  <path d="M10.9366 11.3802H10.9449" stroke="#1F8A70" stroke-width="1.83333" stroke-linecap="round" stroke-linejoin="round"/>
  <path d="M7.2628 11.3802H7.27105" stroke="#1F8A70" stroke-width="1.83333" stroke-linecap="round" stroke-linejoin="round"/>
</svg>