<svg width="20" height="18" viewBox="0 0 20 18" fill="none" xmlns="http://www.w3.org/2000/svg">
<path d="M17.2504 0H2.74963C1.23352 0 0 1.20644 0 2.6898V11.3708C0 12.8509 1.22815 14.0554 2.73987 14.0606V18L8.5271 14.0606H17.2504C18.7665 14.0606 20 12.854 20 11.3708V2.6898C20 1.20644 18.7665 0 17.2504 0ZM18.8281 11.3708C18.8281 12.2218 18.1204 12.9143 17.2504 12.9143H8.15942L3.91174 15.8058V12.9143H2.74963C1.87964 12.9143 1.17188 12.2218 1.17188 11.3708V2.6898C1.17188 1.83862 1.87964 1.14638 2.74963 1.14638H17.2504C18.1204 1.14638 18.8281 1.83862 18.8281 2.6898V11.3708Z" fill="black" fill-opacity="0.7"/>
<path d="M5.35291 4.05064H14.6471V5.19702H5.35291V4.05064Z" fill="black" fill-opacity="0.7"/>
<path d="M5.35291 6.49624H14.6471V7.64262H5.35291V6.49624Z" fill="black" fill-opacity="0.7"/>
<path d="M5.35291 8.94184H14.6471V10.0882H5.35291V8.94184Z" fill="black" fill-opacity="0.7"/>
</svg>
