<svg width="17" height="22" viewBox="0 0 17 22" fill="none" xmlns="http://www.w3.org/2000/svg">
<path d="M6.06175 11.5656L6.06176 11.5657C6.27469 11.3618 6.60495 11.3738 6.8038 11.5913C6.8138 11.601 6.8235 11.6112 6.83279 11.622M6.06175 11.5656L6.83302 11.6223C6.83295 11.6222 6.83287 11.6221 6.83279 11.622M6.06175 11.5656L6.06063 11.5668L4.66135 12.9638L4.10103 12.3551C4.10096 12.355 4.10088 12.3549 4.1008 12.3549C3.90211 12.1357 3.57068 12.1232 3.3572 12.3275L3.35708 12.3274L3.35362 12.3312C3.15149 12.553 3.15149 12.9008 3.35362 13.1226L3.35419 13.1232L4.28491 14.122C4.37973 14.2324 4.51711 14.2945 4.66084 14.2899C4.80094 14.2876 4.93381 14.2277 5.03101 14.1243L6.80189 12.3643M6.06175 11.5656L6.80189 12.3643M6.83279 11.622C7.01991 11.8358 7.00665 12.1671 6.80234 12.3639M6.83279 11.622C6.83272 11.6219 6.83264 11.6218 6.83256 11.6217L6.80234 12.3639M6.80189 12.3643C6.80204 12.3642 6.80219 12.364 6.80234 12.3639M6.80189 12.3643L6.80234 12.3639M6.06175 7.7564L6.06176 7.75641C6.27469 7.55256 6.60495 7.56459 6.80381 7.78206C6.8138 7.79173 6.8235 7.80194 6.83279 7.81274M6.06175 7.7564L6.83302 7.813C6.83295 7.81292 6.83287 7.81283 6.83279 7.81274M6.06175 7.7564L6.06063 7.75751L4.66135 9.15458L4.10103 8.54586C4.10097 8.54579 4.1009 8.54571 4.10083 8.54564C3.90215 8.32649 3.57069 8.31385 3.3572 8.51824L3.35707 8.51812L3.35362 8.5219C3.15149 8.74374 3.15149 9.09151 3.35362 9.31336L3.35419 9.31397L4.2849 10.3127C4.37972 10.4232 4.5171 10.4852 4.66084 10.4806C4.80094 10.4783 4.93381 10.4184 5.03101 10.315L6.80189 8.55509M6.06175 7.7564L6.80189 8.55509M6.83279 7.81274C7.0199 8.02658 7.00666 8.35781 6.80237 8.55462M6.83279 7.81274C6.83272 7.81265 6.83264 7.81256 6.83256 7.81247L6.80237 8.55462M6.80237 8.55462C6.80221 8.55478 6.80205 8.55493 6.80189 8.55509M6.80237 8.55462L6.80189 8.55509M6.06176 15.3748L6.06177 15.3749C6.27471 15.171 6.60501 15.183 6.80387 15.4006C6.8138 15.4102 6.82347 15.4204 6.83274 15.4311M6.06176 15.3748L6.83291 15.4313C6.83285 15.4313 6.8328 15.4312 6.83274 15.4311M6.06176 15.3748L6.06063 15.376L4.66135 16.773L4.10103 16.1643C4.10096 16.1642 4.10088 16.1641 4.1008 16.1641C3.90211 15.9449 3.57068 15.9324 3.3572 16.1367L3.35708 16.1366L3.35362 16.1404C3.15149 16.3622 3.15149 16.71 3.35362 16.9318L3.35419 16.9324L4.28491 17.9312L6.06176 15.3748ZM6.83274 15.4311C7.01991 15.645 7.00668 15.9763 6.80234 16.1731M6.83274 15.4311C6.83268 15.4311 6.83262 15.431 6.83256 15.4309L6.80234 16.1731M6.80189 16.1735L5.031 17.9335C4.9338 18.0369 4.80094 18.0968 4.66084 18.0991C4.66061 18.0991 4.66037 18.0991 4.66014 18.0991L6.80189 16.1735ZM6.80189 16.1735C6.80204 16.1734 6.80219 16.1732 6.80234 16.1731M6.80189 16.1735L6.80234 16.1731M14.0917 3.54538H14.0909H12.4386V2.81093C12.4386 2.64916 12.3526 2.53207 12.2359 2.45876C12.1217 2.38696 11.9762 2.35501 11.8409 2.35501H10.5535C10.2129 1.40334 9.3994 0.927049 8.47879 0.926542C7.56264 0.891118 6.73091 1.4682 6.40178 2.35501H5.13641C5.00098 2.35501 4.86033 2.38702 4.75106 2.45985C4.639 2.53455 4.56141 2.65197 4.56141 2.81093V3.54538H2.9091V3.54537L2.90826 3.54538C1.84191 3.5573 0.974837 4.43761 0.925076 5.54542L0.925 5.54542V5.54879V19.1906C0.925 20.2859 1.87429 21.075 2.9091 21.075H14.0909C15.1257 21.075 16.075 20.2859 16.075 19.1906V5.54883H16.0751L16.0749 5.54547C16.0252 4.43761 15.1581 3.5573 14.0917 3.54538ZM11.3796 3.45732V5.21195H5.62045V3.45732H6.79546V3.45793L6.80497 3.45672C7.05733 3.42446 7.25675 3.22455 7.30093 2.96816C7.42903 2.3873 7.91408 1.97407 8.47716 1.95748C9.03457 1.97624 9.51205 2.39061 9.63089 2.9678C9.67755 3.23338 9.89036 3.43645 10.1532 3.45709L10.1532 3.45732H10.1591H11.3796ZM15.0159 19.1986C15.0108 19.6614 14.5639 19.9727 14.0909 19.9727H2.9091C2.43342 19.9727 1.98409 19.6578 1.98409 19.1907V5.55207C2.0288 5.04411 2.42983 4.65728 2.90982 4.64773H4.56136V5.78693H4.56106L4.56167 5.79366C4.58896 6.09683 4.84045 6.32941 5.13835 6.3143H11.8388C12.1401 6.33038 12.3983 6.10241 12.438 5.79659L12.4386 5.79667V5.78693V4.64769H14.0901C14.5701 4.65727 14.9712 5.04407 15.0159 5.55202V19.1907V19.1986ZM13.2727 12.5923H8.04548C7.74976 12.5923 7.51593 12.8424 7.51593 13.1435C7.51593 13.4446 7.74976 13.6947 8.04548 13.6947H13.2727C13.5684 13.6947 13.8023 13.4446 13.8023 13.1435C13.8023 12.8424 13.5684 12.5923 13.2727 12.5923ZM13.2727 8.78309H8.04548C7.74976 8.78309 7.51593 9.03317 7.51593 9.33425C7.51593 9.63533 7.74976 9.8854 8.04548 9.8854H13.2727C13.5684 9.8854 13.8023 9.63533 13.8023 9.33425C13.8023 9.03317 13.5684 8.78309 13.2727 8.78309ZM13.2727 16.4016H8.04548C7.74976 16.4016 7.51593 16.6517 7.51593 16.9527C7.51593 17.2538 7.74976 17.5039 8.04548 17.5039H13.2727C13.5684 17.5039 13.8023 17.2538 13.8023 16.9527C13.8023 16.6517 13.5684 16.4016 13.2727 16.4016Z" fill="#4D4D4D" stroke="#4D4D4D" stroke-width="0.15"/>
</svg>
