<svg xmlns="http://www.w3.org/2000/svg" width="22" height="22" viewBox="0 0 22 22" fill="none">
  <path fill-rule="evenodd" clip-rule="evenodd" d="M15.1369 19.7084H7.48476C4.67393 19.7084 2.51756 18.6932 3.13007 14.607L3.84327 9.06922C4.22084 7.03032 5.52138 6.25 6.66249 6.25H15.9928C17.1507 6.25 18.3757 7.08905 18.812 9.06922L19.5252 14.607C20.0454 18.2317 17.9478 19.7084 15.1369 19.7084Z" stroke="#09454f" stroke-width="1.375" stroke-linecap="round" stroke-linejoin="round"/>
  <path d="M15.2636 6.04826C15.2636 3.86103 13.4905 2.08793 11.3033 2.08793V2.08793C10.25 2.08346 9.23839 2.49874 8.49205 3.24193C7.74571 3.98512 7.32616 4.995 7.32617 6.04826H7.32617" stroke="#09454f" stroke-width="1.375" stroke-linecap="round" stroke-linejoin="round"/>
  <path d="M14.0206 10.1773H13.9786" stroke="#09454f" stroke-width="1.375" stroke-linecap="round" stroke-linejoin="round"/>
  <path d="M8.67683 10.1773H8.63488" stroke="#09454f" stroke-width="1.375" stroke-linecap="round" stroke-linejoin="round"/>
</svg>