<svg width="32" height="32" viewBox="0 0 32 32" fill="none" xmlns="http://www.w3.org/2000/svg">
<path d="M3.125 27V9.125H6.875V11V11.125H7H9H9.125V11V9.125H14.875V11V11.125H15H17H17.125V11V9.125H20.875V11.0498V11.1868L21.0114 11.1743C21.3388 11.1443 21.665 11.125 22 11.125C22.335 11.125 22.6612 11.1443 22.9886 11.1743L23.125 11.1868V11.0498V7V6.875H23H17.125V6C17.125 3.17413 14.8259 0.875 12 0.875C9.17413 0.875 6.875 3.17413 6.875 6V6.875H1H0.875V7V27C0.875 29.279 2.721 31.125 5 31.125H15.6802H16.0749L15.7521 30.8978C14.9509 30.3337 14.2291 29.6712 13.606 28.9202L13.5685 28.875H13.5098H5C3.96896 28.875 3.125 28.0306 3.125 27ZM20.9116 25.5025L21 25.5908L21.0884 25.5025L26.5025 20.0884L26.5908 20L26.5025 19.9116L25.0884 18.4975L25 18.4092L24.9116 18.4975L21 22.4092L19.0884 20.4975L19 20.4092L18.9116 20.4975L17.4975 21.9116L17.4092 22L17.4975 22.0884L20.9116 25.5025ZM9.125 6.875V6C9.125 4.41474 10.4147 3.125 12 3.125C13.5853 3.125 14.875 4.41474 14.875 6V6.875H9.125ZM12.875 22C12.875 27.0319 16.9681 31.125 22 31.125C27.0319 31.125 31.125 27.0319 31.125 22C31.125 16.9681 27.0319 12.875 22 12.875C16.9681 12.875 12.875 16.9681 12.875 22ZM15.125 22C15.125 18.2097 18.2097 15.125 22 15.125C25.7903 15.125 28.875 18.2097 28.875 22C28.875 25.7903 25.7903 28.875 22 28.875C18.2097 28.875 15.125 25.7903 15.125 22Z" fill="white" stroke="white" stroke-width="0.25"/>
</svg>
