<svg width="20" height="20" viewBox="0 0 20 20" fill="none" xmlns="http://www.w3.org/2000/svg">
<path d="M15.3333 2.66667H14V2C14 0.9 13.1 0 12 0C10.9 0 10 0.9 10 2V2.66667H7.33333V2C7.33333 0.9 6.43333 0 5.33333 0C4.23333 0 3.33333 0.9 3.33333 2V2.66667H2C0.9 2.66667 0 3.56667 0 4.66667V16.6667C0 17.7667 0.9 18.6667 2 18.6667H7.33333C7.7 18.6667 8 18.3667 8 18C8 17.6333 7.7 17.3333 7.33333 17.3333H2C1.63333 17.3333 1.33333 17.0333 1.33333 16.6667V4.66667C1.33333 4.3 1.63333 4 2 4H3.33333C3.33333 5.1 4.23333 6 5.33333 6C5.7 6 6 5.7 6 5.33333C6 4.96667 5.7 4.66667 5.33333 4.66667C4.96667 4.66667 4.66667 4.36667 4.66667 4H10C10 5.1 10.9 6 12 6C12.3667 6 12.6667 5.7 12.6667 5.33333C12.6667 4.96667 12.3667 4.66667 12 4.66667C11.6333 4.66667 11.3333 4.36667 11.3333 4H15.3333C15.7 4 16 4.3 16 4.66667V6.66667C16 7.03333 16.3 7.33333 16.6667 7.33333C17.0333 7.33333 17.3333 7.03333 17.3333 6.66667V4.66667C17.3333 3.56667 16.4333 2.66667 15.3333 2.66667ZM6 2.66667H4.66667V2C4.66667 1.63333 4.96667 1.33333 5.33333 1.33333C5.7 1.33333 6 1.63333 6 2V2.66667ZM12.6667 2.66667H11.3333V2C11.3333 1.63333 11.6333 1.33333 12 1.33333C12.3667 1.33333 12.6667 1.63333 12.6667 2V2.66667Z" fill="#4D4D4D"/>
<path d="M13.6667 7.33333C10.1733 7.33333 7.33333 10.1733 7.33333 13.6667C7.33333 17.16 10.1733 20 13.6667 20C17.16 20 20 17.16 20 13.6667C20 10.1733 17.16 7.33333 13.6667 7.33333ZM13.6667 13C14.7667 13 15.6667 13.9 15.6667 15C15.6667 15.8667 15.1067 16.6 14.3333 16.88V17C14.3333 17.3667 14.0333 17.6667 13.6667 17.6667C13.3 17.6667 13 17.3667 13 17V16.88C12.2267 16.6 11.6667 15.8667 11.6667 15C11.6667 14.6333 11.9667 14.3333 12.3333 14.3333C12.7 14.3333 13 14.6333 13 15C13 15.3667 13.3 15.6667 13.6667 15.6667C14.0333 15.6667 14.3333 15.3667 14.3333 15C14.3333 14.6333 14.0333 14.3333 13.6667 14.3333C12.5667 14.3333 11.6667 13.4333 11.6667 12.3333C11.6667 11.4667 12.2267 10.7333 13 10.4533V10.3333C13 9.96667 13.3 9.66667 13.6667 9.66667C14.0333 9.66667 14.3333 9.96667 14.3333 10.3333V10.4533C15.1067 10.7333 15.6667 11.4667 15.6667 12.3333C15.6667 12.7 15.3667 13 15 13C14.6333 13 14.3333 12.7 14.3333 12.3333C14.3333 11.9667 14.0333 11.6667 13.6667 11.6667C13.3 11.6667 13 11.9667 13 12.3333C13 12.7 13.3 13 13.6667 13Z" fill="#4D4D4D"/>
</svg>
