<svg width="29" height="31" viewBox="0 0 29 31" fill="none" xmlns="http://www.w3.org/2000/svg">
<mask id="path-1-outside-1_706_35" maskUnits="userSpaceOnUse" x="-0.463379" y="-0.0854492" width="30" height="31" fill="black">
<rect fill="white" x="-0.463379" y="-0.0854492" width="30" height="31"/>
<path d="M28.7199 18.2889C28.6173 18.1182 28.4389 18.0163 28.2428 18.0163H28.1434L24.1222 8.96784H25.0636C25.6946 8.96784 26.208 8.44351 26.208 7.79904C26.208 7.15457 25.6946 6.63024 25.0636 6.63024H15.9082V5.09123C16.5072 4.68182 16.9025 3.98472 16.9025 3.19487C16.9025 1.93752 15.9009 0.914551 14.6699 0.914551C13.4389 0.914551 12.4373 1.93752 12.4373 3.19487C12.4373 3.98472 12.8326 4.68182 13.4316 5.09123V6.63018H4.27609C3.64505 6.63018 3.13174 7.15451 3.13174 7.79898C3.13174 8.44345 3.6451 8.96778 4.27609 8.96778H5.21751L1.19632 18.0162H1.09694C0.900798 18.0162 0.722463 18.1182 0.619858 18.2889C0.517252 18.4596 0.509017 18.6682 0.597879 18.847L1.32469 20.3081C1.60607 20.8738 2.1669 21.2253 2.78826 21.2253H9.21851C9.83988 21.2253 10.4006 20.8739 10.6821 20.3081L11.4088 18.8471C11.4978 18.6685 11.4896 18.4599 11.387 18.289C11.2844 18.1183 11.106 18.0163 10.9098 18.0163H10.8105L6.78931 8.96784H13.4316V24.9182H10.412C9.67072 24.9182 9.06766 25.5342 9.06766 26.2913V27.0377H8.399C7.65773 27.0377 7.05467 27.6536 7.05467 28.4107V29.5848C7.05467 29.821 7.24213 30.0125 7.47344 30.0125H21.8663C22.0976 30.0125 22.2851 29.821 22.2851 29.5848V28.4107C22.2851 27.6536 21.682 27.0377 20.9407 27.0377H20.2721V26.2913C20.2721 25.5342 19.669 24.9182 18.9277 24.9182H15.9082V12.5669C15.9082 12.3307 15.7207 12.1392 15.4894 12.1392C15.2581 12.1392 15.0706 12.3306 15.0706 12.5669V24.9182H14.269V8.54012C14.269 8.30393 14.0815 8.11241 13.8502 8.11241H4.27609C4.10688 8.11241 3.96922 7.97181 3.96922 7.79898C3.96922 7.62616 4.10688 7.48555 4.27609 7.48555H13.8503C14.0816 7.48555 14.269 7.29409 14.269 7.05784V5.43876C14.2847 5.44166 14.3005 5.44382 14.3162 5.44637C14.3242 5.44768 14.3322 5.44904 14.3402 5.45024C14.367 5.45427 14.3941 5.45774 14.4212 5.46081C14.4312 5.46195 14.4412 5.46325 14.4513 5.46422C14.4768 5.46672 14.5024 5.46854 14.528 5.47019C14.5392 5.47092 14.5504 5.47195 14.5617 5.47246C14.5936 5.47399 14.6255 5.47473 14.6574 5.47496C14.6616 5.47496 14.6657 5.4753 14.6698 5.4753C14.674 5.4753 14.6781 5.47502 14.6822 5.47496C14.7142 5.47479 14.7461 5.47405 14.778 5.47246C14.7893 5.47189 14.8005 5.47087 14.8117 5.47019C14.8373 5.46854 14.8629 5.46672 14.8884 5.46422C14.8985 5.4632 14.9085 5.46195 14.9186 5.46081C14.9457 5.45774 14.9727 5.45433 14.9995 5.45029C15.0075 5.4491 15.0155 5.44774 15.0235 5.44643C15.0391 5.44387 15.055 5.44171 15.0706 5.43882V7.0579C15.0706 7.29409 15.2581 7.48561 15.4894 7.48561H25.0636C25.2328 7.48561 25.3705 7.62621 25.3705 7.79904C25.3705 7.97186 25.2328 8.11247 25.0636 8.11247H15.4895C15.2582 8.11247 15.0707 8.30393 15.0707 8.54018V10.5394C15.0707 10.7756 15.2582 10.9671 15.4895 10.9671C15.7208 10.9671 15.9082 10.7757 15.9082 10.5394V8.96784H22.5505L18.5293 18.0162H18.43C18.2338 18.0162 18.0554 18.1182 17.9528 18.289C17.8502 18.4598 17.842 18.6685 17.9309 18.847L18.6577 20.3081C18.9391 20.8738 19.4999 21.2253 20.1213 21.2253H26.5515C27.1729 21.2253 27.7337 20.8739 28.0151 20.3081L28.742 18.8469C28.8308 18.6683 28.8225 18.4597 28.7199 18.2889ZM18.9278 25.7736C19.2072 25.7736 19.4346 26.0058 19.4346 26.2912V27.0376H13.0272C12.7959 27.0376 12.6084 27.2291 12.6084 27.4653C12.6084 27.7015 12.7959 27.8931 13.0272 27.8931H20.9407C21.2202 27.8931 21.4475 28.1253 21.4475 28.4107V29.157H7.89221V28.4107C7.89221 28.1253 8.11957 27.8931 8.399 27.8931H11.0837C11.315 27.8931 11.5025 27.7016 11.5025 27.4653C11.5025 27.2291 11.315 27.0376 11.0837 27.0376H9.90515V26.2912C9.90515 26.0058 10.1325 25.7736 10.4119 25.7736H18.9278ZM9.93541 19.9206C9.79759 20.1977 9.52288 20.3699 9.21851 20.3699H2.78831C2.48395 20.3699 2.20924 20.1977 2.07141 19.9206L1.54959 18.8716H10.4572L9.93541 19.9206ZM9.8958 18.0162H2.11103L6.00341 9.25763L9.8958 18.0162ZM15.2887 4.47154C15.2735 4.47927 15.258 4.4866 15.2426 4.49376C15.2348 4.4974 15.227 4.5012 15.219 4.50467C15.2016 4.51234 15.1839 4.51945 15.1662 4.52638C15.1527 4.53167 15.1389 4.53672 15.1251 4.54161C15.1106 4.54678 15.096 4.55195 15.0813 4.55662C15.068 4.56082 15.0544 4.56457 15.0409 4.56838C15.0306 4.57128 15.0204 4.57423 15.01 4.5769C14.9961 4.58048 14.9819 4.58372 14.9678 4.58691C14.9575 4.58918 14.9471 4.59145 14.9368 4.5935C14.9229 4.59623 14.909 4.59878 14.895 4.60111C14.8835 4.60305 14.8719 4.60469 14.8604 4.60629C14.8475 4.6081 14.8345 4.60992 14.8215 4.61134C14.8071 4.61294 14.7925 4.61407 14.778 4.61521C14.7676 4.61606 14.7571 4.61708 14.7467 4.61765C14.7212 4.61907 14.6957 4.61993 14.67 4.61993C14.6442 4.61993 14.6186 4.61907 14.5932 4.61765C14.5827 4.61708 14.5723 4.61606 14.5619 4.61521C14.5474 4.61407 14.5328 4.61294 14.5184 4.61134C14.5054 4.60992 14.4925 4.6081 14.4795 4.60629C14.468 4.60469 14.4564 4.60299 14.4449 4.60111C14.4309 4.59878 14.417 4.59623 14.4031 4.5935C14.3927 4.59145 14.3824 4.58918 14.3721 4.58691C14.358 4.58378 14.3438 4.58054 14.3299 4.5769C14.3196 4.57423 14.3093 4.57128 14.299 4.56838C14.2855 4.56457 14.2719 4.56082 14.2586 4.55662C14.2439 4.55195 14.2294 4.54678 14.2148 4.54161C14.201 4.53672 14.1873 4.53172 14.1737 4.52638C14.156 4.51945 14.1383 4.51234 14.1209 4.50467C14.1129 4.5012 14.1051 4.4974 14.0973 4.49376C14.0819 4.4866 14.0665 4.47932 14.0512 4.47154C13.5916 4.23819 13.2749 3.7537 13.2749 3.19487C13.2749 2.40917 13.9007 1.76993 14.67 1.76993C15.4393 1.76993 16.0651 2.40917 16.0651 3.19487C16.065 3.7537 15.7484 4.23819 15.2887 4.47154ZM23.3364 9.25763L27.2288 18.0162H19.4439L23.3364 9.25763ZM27.2684 19.9206C27.1306 20.1977 26.8558 20.3699 26.5515 20.3699H20.1212C19.8169 20.3699 19.5422 20.1977 19.4043 19.9206L18.8825 18.8716H27.7901L27.2684 19.9206Z"/>
</mask>
<path d="M28.7199 18.2889C28.6173 18.1182 28.4389 18.0163 28.2428 18.0163H28.1434L24.1222 8.96784H25.0636C25.6946 8.96784 26.208 8.44351 26.208 7.79904C26.208 7.15457 25.6946 6.63024 25.0636 6.63024H15.9082V5.09123C16.5072 4.68182 16.9025 3.98472 16.9025 3.19487C16.9025 1.93752 15.9009 0.914551 14.6699 0.914551C13.4389 0.914551 12.4373 1.93752 12.4373 3.19487C12.4373 3.98472 12.8326 4.68182 13.4316 5.09123V6.63018H4.27609C3.64505 6.63018 3.13174 7.15451 3.13174 7.79898C3.13174 8.44345 3.6451 8.96778 4.27609 8.96778H5.21751L1.19632 18.0162H1.09694C0.900798 18.0162 0.722463 18.1182 0.619858 18.2889C0.517252 18.4596 0.509017 18.6682 0.597879 18.847L1.32469 20.3081C1.60607 20.8738 2.1669 21.2253 2.78826 21.2253H9.21851C9.83988 21.2253 10.4006 20.8739 10.6821 20.3081L11.4088 18.8471C11.4978 18.6685 11.4896 18.4599 11.387 18.289C11.2844 18.1183 11.106 18.0163 10.9098 18.0163H10.8105L6.78931 8.96784H13.4316V24.9182H10.412C9.67072 24.9182 9.06766 25.5342 9.06766 26.2913V27.0377H8.399C7.65773 27.0377 7.05467 27.6536 7.05467 28.4107V29.5848C7.05467 29.821 7.24213 30.0125 7.47344 30.0125H21.8663C22.0976 30.0125 22.2851 29.821 22.2851 29.5848V28.4107C22.2851 27.6536 21.682 27.0377 20.9407 27.0377H20.2721V26.2913C20.2721 25.5342 19.669 24.9182 18.9277 24.9182H15.9082V12.5669C15.9082 12.3307 15.7207 12.1392 15.4894 12.1392C15.2581 12.1392 15.0706 12.3306 15.0706 12.5669V24.9182H14.269V8.54012C14.269 8.30393 14.0815 8.11241 13.8502 8.11241H4.27609C4.10688 8.11241 3.96922 7.97181 3.96922 7.79898C3.96922 7.62616 4.10688 7.48555 4.27609 7.48555H13.8503C14.0816 7.48555 14.269 7.29409 14.269 7.05784V5.43876C14.2847 5.44166 14.3005 5.44382 14.3162 5.44637C14.3242 5.44768 14.3322 5.44904 14.3402 5.45024C14.367 5.45427 14.3941 5.45774 14.4212 5.46081C14.4312 5.46195 14.4412 5.46325 14.4513 5.46422C14.4768 5.46672 14.5024 5.46854 14.528 5.47019C14.5392 5.47092 14.5504 5.47195 14.5617 5.47246C14.5936 5.47399 14.6255 5.47473 14.6574 5.47496C14.6616 5.47496 14.6657 5.4753 14.6698 5.4753C14.674 5.4753 14.6781 5.47502 14.6822 5.47496C14.7142 5.47479 14.7461 5.47405 14.778 5.47246C14.7893 5.47189 14.8005 5.47087 14.8117 5.47019C14.8373 5.46854 14.8629 5.46672 14.8884 5.46422C14.8985 5.4632 14.9085 5.46195 14.9186 5.46081C14.9457 5.45774 14.9727 5.45433 14.9995 5.45029C15.0075 5.4491 15.0155 5.44774 15.0235 5.44643C15.0391 5.44387 15.055 5.44171 15.0706 5.43882V7.0579C15.0706 7.29409 15.2581 7.48561 15.4894 7.48561H25.0636C25.2328 7.48561 25.3705 7.62621 25.3705 7.79904C25.3705 7.97186 25.2328 8.11247 25.0636 8.11247H15.4895C15.2582 8.11247 15.0707 8.30393 15.0707 8.54018V10.5394C15.0707 10.7756 15.2582 10.9671 15.4895 10.9671C15.7208 10.9671 15.9082 10.7757 15.9082 10.5394V8.96784H22.5505L18.5293 18.0162H18.43C18.2338 18.0162 18.0554 18.1182 17.9528 18.289C17.8502 18.4598 17.842 18.6685 17.9309 18.847L18.6577 20.3081C18.9391 20.8738 19.4999 21.2253 20.1213 21.2253H26.5515C27.1729 21.2253 27.7337 20.8739 28.0151 20.3081L28.742 18.8469C28.8308 18.6683 28.8225 18.4597 28.7199 18.2889ZM18.9278 25.7736C19.2072 25.7736 19.4346 26.0058 19.4346 26.2912V27.0376H13.0272C12.7959 27.0376 12.6084 27.2291 12.6084 27.4653C12.6084 27.7015 12.7959 27.8931 13.0272 27.8931H20.9407C21.2202 27.8931 21.4475 28.1253 21.4475 28.4107V29.157H7.89221V28.4107C7.89221 28.1253 8.11957 27.8931 8.399 27.8931H11.0837C11.315 27.8931 11.5025 27.7016 11.5025 27.4653C11.5025 27.2291 11.315 27.0376 11.0837 27.0376H9.90515V26.2912C9.90515 26.0058 10.1325 25.7736 10.4119 25.7736H18.9278ZM9.93541 19.9206C9.79759 20.1977 9.52288 20.3699 9.21851 20.3699H2.78831C2.48395 20.3699 2.20924 20.1977 2.07141 19.9206L1.54959 18.8716H10.4572L9.93541 19.9206ZM9.8958 18.0162H2.11103L6.00341 9.25763L9.8958 18.0162ZM15.2887 4.47154C15.2735 4.47927 15.258 4.4866 15.2426 4.49376C15.2348 4.4974 15.227 4.5012 15.219 4.50467C15.2016 4.51234 15.1839 4.51945 15.1662 4.52638C15.1527 4.53167 15.1389 4.53672 15.1251 4.54161C15.1106 4.54678 15.096 4.55195 15.0813 4.55662C15.068 4.56082 15.0544 4.56457 15.0409 4.56838C15.0306 4.57128 15.0204 4.57423 15.01 4.5769C14.9961 4.58048 14.9819 4.58372 14.9678 4.58691C14.9575 4.58918 14.9471 4.59145 14.9368 4.5935C14.9229 4.59623 14.909 4.59878 14.895 4.60111C14.8835 4.60305 14.8719 4.60469 14.8604 4.60629C14.8475 4.6081 14.8345 4.60992 14.8215 4.61134C14.8071 4.61294 14.7925 4.61407 14.778 4.61521C14.7676 4.61606 14.7571 4.61708 14.7467 4.61765C14.7212 4.61907 14.6957 4.61993 14.67 4.61993C14.6442 4.61993 14.6186 4.61907 14.5932 4.61765C14.5827 4.61708 14.5723 4.61606 14.5619 4.61521C14.5474 4.61407 14.5328 4.61294 14.5184 4.61134C14.5054 4.60992 14.4925 4.6081 14.4795 4.60629C14.468 4.60469 14.4564 4.60299 14.4449 4.60111C14.4309 4.59878 14.417 4.59623 14.4031 4.5935C14.3927 4.59145 14.3824 4.58918 14.3721 4.58691C14.358 4.58378 14.3438 4.58054 14.3299 4.5769C14.3196 4.57423 14.3093 4.57128 14.299 4.56838C14.2855 4.56457 14.2719 4.56082 14.2586 4.55662C14.2439 4.55195 14.2294 4.54678 14.2148 4.54161C14.201 4.53672 14.1873 4.53172 14.1737 4.52638C14.156 4.51945 14.1383 4.51234 14.1209 4.50467C14.1129 4.5012 14.1051 4.4974 14.0973 4.49376C14.0819 4.4866 14.0665 4.47932 14.0512 4.47154C13.5916 4.23819 13.2749 3.7537 13.2749 3.19487C13.2749 2.40917 13.9007 1.76993 14.67 1.76993C15.4393 1.76993 16.0651 2.40917 16.0651 3.19487C16.065 3.7537 15.7484 4.23819 15.2887 4.47154ZM23.3364 9.25763L27.2288 18.0162H19.4439L23.3364 9.25763ZM27.2684 19.9206C27.1306 20.1977 26.8558 20.3699 26.5515 20.3699H20.1212C19.8169 20.3699 19.5422 20.1977 19.4043 19.9206L18.8825 18.8716H27.7901L27.2684 19.9206Z" fill="#09454F"/>
<path d="M28.7199 18.2889C28.6173 18.1182 28.4389 18.0163 28.2428 18.0163H28.1434L24.1222 8.96784H25.0636C25.6946 8.96784 26.208 8.44351 26.208 7.79904C26.208 7.15457 25.6946 6.63024 25.0636 6.63024H15.9082V5.09123C16.5072 4.68182 16.9025 3.98472 16.9025 3.19487C16.9025 1.93752 15.9009 0.914551 14.6699 0.914551C13.4389 0.914551 12.4373 1.93752 12.4373 3.19487C12.4373 3.98472 12.8326 4.68182 13.4316 5.09123V6.63018H4.27609C3.64505 6.63018 3.13174 7.15451 3.13174 7.79898C3.13174 8.44345 3.6451 8.96778 4.27609 8.96778H5.21751L1.19632 18.0162H1.09694C0.900798 18.0162 0.722463 18.1182 0.619858 18.2889C0.517252 18.4596 0.509017 18.6682 0.597879 18.847L1.32469 20.3081C1.60607 20.8738 2.1669 21.2253 2.78826 21.2253H9.21851C9.83988 21.2253 10.4006 20.8739 10.6821 20.3081L11.4088 18.8471C11.4978 18.6685 11.4896 18.4599 11.387 18.289C11.2844 18.1183 11.106 18.0163 10.9098 18.0163H10.8105L6.78931 8.96784H13.4316V24.9182H10.412C9.67072 24.9182 9.06766 25.5342 9.06766 26.2913V27.0377H8.399C7.65773 27.0377 7.05467 27.6536 7.05467 28.4107V29.5848C7.05467 29.821 7.24213 30.0125 7.47344 30.0125H21.8663C22.0976 30.0125 22.2851 29.821 22.2851 29.5848V28.4107C22.2851 27.6536 21.682 27.0377 20.9407 27.0377H20.2721V26.2913C20.2721 25.5342 19.669 24.9182 18.9277 24.9182H15.9082V12.5669C15.9082 12.3307 15.7207 12.1392 15.4894 12.1392C15.2581 12.1392 15.0706 12.3306 15.0706 12.5669V24.9182H14.269V8.54012C14.269 8.30393 14.0815 8.11241 13.8502 8.11241H4.27609C4.10688 8.11241 3.96922 7.97181 3.96922 7.79898C3.96922 7.62616 4.10688 7.48555 4.27609 7.48555H13.8503C14.0816 7.48555 14.269 7.29409 14.269 7.05784V5.43876C14.2847 5.44166 14.3005 5.44382 14.3162 5.44637C14.3242 5.44768 14.3322 5.44904 14.3402 5.45024C14.367 5.45427 14.3941 5.45774 14.4212 5.46081C14.4312 5.46195 14.4412 5.46325 14.4513 5.46422C14.4768 5.46672 14.5024 5.46854 14.528 5.47019C14.5392 5.47092 14.5504 5.47195 14.5617 5.47246C14.5936 5.47399 14.6255 5.47473 14.6574 5.47496C14.6616 5.47496 14.6657 5.4753 14.6698 5.4753C14.674 5.4753 14.6781 5.47502 14.6822 5.47496C14.7142 5.47479 14.7461 5.47405 14.778 5.47246C14.7893 5.47189 14.8005 5.47087 14.8117 5.47019C14.8373 5.46854 14.8629 5.46672 14.8884 5.46422C14.8985 5.4632 14.9085 5.46195 14.9186 5.46081C14.9457 5.45774 14.9727 5.45433 14.9995 5.45029C15.0075 5.4491 15.0155 5.44774 15.0235 5.44643C15.0391 5.44387 15.055 5.44171 15.0706 5.43882V7.0579C15.0706 7.29409 15.2581 7.48561 15.4894 7.48561H25.0636C25.2328 7.48561 25.3705 7.62621 25.3705 7.79904C25.3705 7.97186 25.2328 8.11247 25.0636 8.11247H15.4895C15.2582 8.11247 15.0707 8.30393 15.0707 8.54018V10.5394C15.0707 10.7756 15.2582 10.9671 15.4895 10.9671C15.7208 10.9671 15.9082 10.7757 15.9082 10.5394V8.96784H22.5505L18.5293 18.0162H18.43C18.2338 18.0162 18.0554 18.1182 17.9528 18.289C17.8502 18.4598 17.842 18.6685 17.9309 18.847L18.6577 20.3081C18.9391 20.8738 19.4999 21.2253 20.1213 21.2253H26.5515C27.1729 21.2253 27.7337 20.8739 28.0151 20.3081L28.742 18.8469C28.8308 18.6683 28.8225 18.4597 28.7199 18.2889ZM18.9278 25.7736C19.2072 25.7736 19.4346 26.0058 19.4346 26.2912V27.0376H13.0272C12.7959 27.0376 12.6084 27.2291 12.6084 27.4653C12.6084 27.7015 12.7959 27.8931 13.0272 27.8931H20.9407C21.2202 27.8931 21.4475 28.1253 21.4475 28.4107V29.157H7.89221V28.4107C7.89221 28.1253 8.11957 27.8931 8.399 27.8931H11.0837C11.315 27.8931 11.5025 27.7016 11.5025 27.4653C11.5025 27.2291 11.315 27.0376 11.0837 27.0376H9.90515V26.2912C9.90515 26.0058 10.1325 25.7736 10.4119 25.7736H18.9278ZM9.93541 19.9206C9.79759 20.1977 9.52288 20.3699 9.21851 20.3699H2.78831C2.48395 20.3699 2.20924 20.1977 2.07141 19.9206L1.54959 18.8716H10.4572L9.93541 19.9206ZM9.8958 18.0162H2.11103L6.00341 9.25763L9.8958 18.0162ZM15.2887 4.47154C15.2735 4.47927 15.258 4.4866 15.2426 4.49376C15.2348 4.4974 15.227 4.5012 15.219 4.50467C15.2016 4.51234 15.1839 4.51945 15.1662 4.52638C15.1527 4.53167 15.1389 4.53672 15.1251 4.54161C15.1106 4.54678 15.096 4.55195 15.0813 4.55662C15.068 4.56082 15.0544 4.56457 15.0409 4.56838C15.0306 4.57128 15.0204 4.57423 15.01 4.5769C14.9961 4.58048 14.9819 4.58372 14.9678 4.58691C14.9575 4.58918 14.9471 4.59145 14.9368 4.5935C14.9229 4.59623 14.909 4.59878 14.895 4.60111C14.8835 4.60305 14.8719 4.60469 14.8604 4.60629C14.8475 4.6081 14.8345 4.60992 14.8215 4.61134C14.8071 4.61294 14.7925 4.61407 14.778 4.61521C14.7676 4.61606 14.7571 4.61708 14.7467 4.61765C14.7212 4.61907 14.6957 4.61993 14.67 4.61993C14.6442 4.61993 14.6186 4.61907 14.5932 4.61765C14.5827 4.61708 14.5723 4.61606 14.5619 4.61521C14.5474 4.61407 14.5328 4.61294 14.5184 4.61134C14.5054 4.60992 14.4925 4.6081 14.4795 4.60629C14.468 4.60469 14.4564 4.60299 14.4449 4.60111C14.4309 4.59878 14.417 4.59623 14.4031 4.5935C14.3927 4.59145 14.3824 4.58918 14.3721 4.58691C14.358 4.58378 14.3438 4.58054 14.3299 4.5769C14.3196 4.57423 14.3093 4.57128 14.299 4.56838C14.2855 4.56457 14.2719 4.56082 14.2586 4.55662C14.2439 4.55195 14.2294 4.54678 14.2148 4.54161C14.201 4.53672 14.1873 4.53172 14.1737 4.52638C14.156 4.51945 14.1383 4.51234 14.1209 4.50467C14.1129 4.5012 14.1051 4.4974 14.0973 4.49376C14.0819 4.4866 14.0665 4.47932 14.0512 4.47154C13.5916 4.23819 13.2749 3.7537 13.2749 3.19487C13.2749 2.40917 13.9007 1.76993 14.67 1.76993C15.4393 1.76993 16.0651 2.40917 16.0651 3.19487C16.065 3.7537 15.7484 4.23819 15.2887 4.47154ZM23.3364 9.25763L27.2288 18.0162H19.4439L23.3364 9.25763ZM27.2684 19.9206C27.1306 20.1977 26.8558 20.3699 26.5515 20.3699H20.1212C19.8169 20.3699 19.5422 20.1977 19.4043 19.9206L18.8825 18.8716H27.7901L27.2684 19.9206Z" stroke="#387ECA" stroke-width="0.332548" mask="url(#path-1-outside-1_706_35)"/>
</svg>
