<svg width="18" height="17" viewBox="0 0 18 17" fill="none" xmlns="http://www.w3.org/2000/svg">
<path d="M17.8087 7.07323L13.8644 10.884L14.7959 16.2663C14.8364 16.5017 14.7389 16.7395 14.5438 16.8801C14.4337 16.9598 14.3026 17 14.1715 17C14.0708 17 13.9695 16.9762 13.8771 16.9278L9 14.3867L4.12357 16.9272C3.9108 17.0389 3.65182 17.0207 3.45678 16.8795C3.26175 16.7389 3.16424 16.5011 3.20476 16.2657L4.13623 10.8834L0.191263 7.07323C0.0190267 6.90628 -0.0436622 6.6565 0.0310579 6.42994C0.105778 6.20337 0.303976 6.03706 0.542701 6.00254L5.9941 5.21804L8.432 0.321489C8.6454 -0.107163 9.3546 -0.107163 9.568 0.321489L12.0059 5.21804L17.4573 6.00254C17.696 6.03706 17.8942 6.20274 17.9689 6.42994C18.0437 6.65713 17.981 6.90566 17.8087 7.07323Z" fill="#00B2A9"/>
</svg>
