<svg width="24" height="24" viewBox="0 0 24 24" fill="none" xmlns="http://www.w3.org/2000/svg">
<path d="M19.5259 17.9966C18.995 17.9966 18.476 18.1538 18.0346 18.4482C17.5931 18.7427 17.2491 19.1613 17.0459 19.651C16.8427 20.1407 16.7896 20.6796 16.8931 21.1994C16.9967 21.7193 17.2524 22.1968 17.6278 22.5716C18.0032 22.9464 18.4815 23.2017 19.0022 23.3051C19.5229 23.4085 20.0626 23.3554 20.5531 23.1526C21.0436 22.9498 21.4629 22.6062 21.7578 22.1655C22.0528 21.7248 22.2102 21.2066 22.2102 20.6766C22.2094 19.9661 21.9264 19.2848 21.4231 18.7824C20.9199 18.28 20.2376 17.9974 19.5259 17.9966ZM19.5259 21.5699C19.3489 21.5699 19.1759 21.5175 19.0288 21.4194C18.8816 21.3212 18.7669 21.1817 18.6992 21.0185C18.6315 20.8552 18.6138 20.6756 18.6483 20.5023C18.6828 20.329 18.768 20.1698 18.8932 20.0449C19.0183 19.92 19.1778 19.8349 19.3513 19.8004C19.5249 19.766 19.7048 19.7836 19.8683 19.8513C20.0318 19.9189 20.1715 20.0334 20.2699 20.1803C20.3682 20.3272 20.4207 20.4999 20.4207 20.6766C20.4204 20.9134 20.326 21.1405 20.1582 21.3079C19.9905 21.4754 19.7631 21.5696 19.5259 21.5699Z" fill="#09454F"/>
<path d="M14.1572 17.9966H6.99903C6.76172 17.9966 6.53413 17.9025 6.36632 17.7349C6.19852 17.5674 6.10425 17.3402 6.10425 17.1033C6.10425 16.8663 6.19852 16.6391 6.36632 16.4716C6.53413 16.304 6.76172 16.2099 6.99903 16.2099H21.3154C21.5272 16.2099 21.7321 16.1349 21.8937 15.9983C22.0553 15.8616 22.1631 15.6722 22.198 15.4636L23.9875 4.7436C24.0089 4.61562 24.0021 4.48452 23.9676 4.35942C23.9331 4.23433 23.8717 4.11823 23.7877 4.01922C23.7037 3.92021 23.5992 3.84065 23.4813 3.78608C23.3633 3.7315 23.2349 3.70323 23.105 3.70322H8.78858C8.55127 3.70322 8.32368 3.79734 8.15587 3.96488C7.98807 4.13241 7.8938 4.35963 7.8938 4.59656C7.8938 4.83349 7.98807 5.06071 8.15587 5.22824C8.32368 5.39577 8.55127 5.48989 8.78858 5.48989H22.0485L20.5574 14.4232H9.40848L4.25788 0.709568C4.19387 0.539303 4.07935 0.392587 3.92962 0.289008C3.77989 0.185429 3.60208 0.129916 3.41992 0.129883H1.63037C1.39306 0.129883 1.16547 0.224002 0.997669 0.391535C0.829866 0.559067 0.735596 0.786291 0.735596 1.02322C0.735596 1.26015 0.829866 1.48737 0.997669 1.6549C1.16547 1.82243 1.39306 1.91655 1.63037 1.91655H2.79993L7.4975 14.4232H6.99903C6.34705 14.4186 5.71582 14.6518 5.22393 15.0791C4.73204 15.5063 4.41336 16.0982 4.32775 16.7435C4.24214 17.3888 4.39551 18.0431 4.75903 18.5835C5.12255 19.1239 5.6712 19.5131 6.30191 19.6781C6.13371 20.0816 6.06674 20.52 6.10682 20.9553C6.14689 21.3905 6.2928 21.8094 6.53187 22.1755C6.77093 22.5417 7.09592 22.844 7.47861 23.0562C7.8613 23.2685 8.2901 23.3842 8.72777 23.3934C9.16544 23.4026 9.59875 23.305 9.99003 23.109C10.3813 22.913 10.7188 22.6246 10.973 22.2688C11.2273 21.913 11.3907 21.5006 11.4491 21.0675C11.5075 20.6343 11.459 20.1935 11.308 19.7833H14.1572C14.3945 19.7833 14.6221 19.6891 14.7899 19.5216C14.9577 19.3541 15.052 19.1269 15.052 18.8899C15.052 18.653 14.9577 18.4258 14.7899 18.2582C14.6221 18.0907 14.3945 17.9966 14.1572 17.9966ZM9.68335 20.6766C9.68335 20.8533 9.63087 21.026 9.53255 21.1729C9.43424 21.3198 9.29449 21.4343 9.13099 21.5019C8.96749 21.5695 8.78758 21.5872 8.61401 21.5528C8.44044 21.5183 8.28101 21.4332 8.15587 21.3083C8.03074 21.1833 7.94552 21.0242 7.91099 20.8509C7.87647 20.6776 7.89419 20.498 7.96191 20.3347C8.02963 20.1715 8.14432 20.032 8.29147 19.9338C8.43861 19.8356 8.61161 19.7833 8.78858 19.7833C9.02579 19.7836 9.2532 19.8778 9.42094 20.0452C9.58867 20.2127 9.68304 20.4398 9.68335 20.6766Z" fill="#09454F"/>
</svg>
