<svg width="17" height="17" viewBox="0 0 17 17" fill="none" xmlns="http://www.w3.org/2000/svg">
<path d="M16.15 4.59972H0.85C0.34 4.59972 0 4.24416 0 3.71083C0 3.1775 0.34 2.82194 0.85 2.82194H16.15C16.66 2.82194 17 3.1775 17 3.71083C17 4.24416 16.66 4.59972 16.15 4.59972Z" fill="#BBBBBB"/>
<path d="M13.6 7.26638C13.345 7.26638 13.175 7.1775 13.005 6.99972C12.665 6.64416 12.665 6.11083 13.005 5.75527L14.96 3.71083L13.005 1.66638C12.665 1.31083 12.665 0.777496 13.005 0.42194C13.345 0.0663845 13.855 0.0663845 14.195 0.42194L16.745 3.08861C17.085 3.44416 17.085 3.9775 16.745 4.33305L14.195 6.99972C14.025 7.1775 13.855 7.26638 13.6 7.26638Z" fill="#BBBBBB"/>
<path d="M3.4 16.1553C3.145 16.1553 2.975 16.0664 2.805 15.8886L0.255 13.2219C-0.085 12.8664 -0.085 12.3331 0.255 11.9775L2.805 9.31083C3.145 8.95527 3.655 8.95527 3.995 9.31083C4.335 9.66638 4.335 10.1997 3.995 10.5553L2.04 12.5997L3.995 14.6442C4.335 14.9997 4.335 15.5331 3.995 15.8886C3.825 16.0664 3.655 16.1553 3.4 16.1553Z" fill="#BBBBBB"/>
<path d="M16.15 13.4886H0.85C0.34 13.4886 0 13.1331 0 12.5997C0 12.0664 0.34 11.7108 0.85 11.7108H16.15C16.66 11.7108 17 12.0664 17 12.5997C17 13.1331 16.66 13.4886 16.15 13.4886Z" fill="#BBBBBB"/>
</svg>
