<svg width="14" height="21" viewBox="0 0 14 21" fill="none" xmlns="http://www.w3.org/2000/svg">
<path d="M4.74169 1.78835L4.74168 1.78836C4.14895 2.38083 3.82618 3.15889 3.83579 3.97888V11.2225C3.83579 12.9474 5.25698 14.3471 7 14.3471C8.74302 14.3471 10.1642 12.9474 10.1642 11.2225V3.97466C10.1642 2.24972 8.74302 0.85 7 0.85C6.16088 0.85 5.33839 1.192 4.74169 1.78835ZM13.15 11.2224V10.9262C13.15 10.6366 12.9126 10.4051 12.624 10.4051C12.3353 10.4051 12.0979 10.6366 12.0979 10.9262V11.2224C12.0979 13.9935 9.81277 16.2515 7 16.2515C4.18723 16.2515 1.90206 13.9935 1.90206 11.2224V10.9262C1.90206 10.6366 1.66469 10.4051 1.37603 10.4051C1.08737 10.4051 0.85 10.6366 0.85 10.9262V11.2224C0.85 14.397 3.3297 17.0069 6.47397 17.2712V19.1078H3.6489C3.36024 19.1078 3.12287 19.3393 3.12287 19.6289C3.12287 19.9185 3.36024 20.15 3.6489 20.15H10.3511C10.6398 20.15 10.8772 19.9185 10.8772 19.6289C10.8772 19.3393 10.6398 19.1078 10.3511 19.1078H7.52603V17.2712C10.6703 17.0069 13.15 14.397 13.15 11.2224ZM4.88784 11.2225V3.97574L4.88778 3.9691L4.88779 3.9691C4.88089 3.43138 5.09308 2.91765 5.48892 2.52201C5.88954 2.12161 6.44093 1.89219 7 1.89219C8.1664 1.89219 9.11215 2.82837 9.11215 3.97466V11.2225C9.11215 12.3688 8.1664 13.305 7 13.305C5.8336 13.305 4.88784 12.3688 4.88784 11.2225Z" fill="#09454F" stroke="#09454F" stroke-width="0.3"/>
</svg>
