<svg xmlns="http://www.w3.org/2000/svg" width="86" height="86" viewBox="0 0 86 86" fill="none">
<path d="M14.8556 41.7615C11.5472 31.4323 15.4137 19.6262 26.2577 16.1328C31.9619 14.2921 38.2581 15.3774 43.0002 18.9448C47.4865 15.4761 54.0139 14.3044 59.7119 16.1328C70.556 19.6262 74.4472 31.4323 71.1418 41.7615C65.9927 58.134 43.0002 70.7448 43.0002 70.7448C43.0002 70.7448 20.1774 58.3252 14.8556 41.7615Z" fill="#09454f" stroke="#09454f" stroke-width="4.625" stroke-linecap="round" stroke-linejoin="round"/>
<path opacity="0.4" d="M27.3281 24.5C24.029 25.5668 21.698 28.5114 21.4174 31.9678" stroke="white" stroke-width="3.08333" stroke-linecap="round" stroke-linejoin="round"/>
<circle cx="66.992" cy="28.1443" r="17.4414" fill="#C5FFF1" stroke="white" stroke-width="2.37838"/>
<path d="M75.068 24.0723L74.2603 23.2464C73.9276 22.9062 73.3844 22.9062 73.0488 23.2464L64.58 31.9098L60.1437 27.3731C59.811 27.0328 59.2678 27.0328 58.9322 27.3731L58.1245 28.199C57.7918 28.5393 57.7918 29.0947 58.1245 29.4379L63.9714 35.4171C64.1392 35.5887 64.3553 35.6759 64.5743 35.6759C64.7933 35.6759 65.0123 35.5887 65.1772 35.4171L75.0594 25.3112C75.4007 24.9652 75.4007 24.4126 75.068 24.0723Z" fill="#09454f"/>
</svg>