<svg xmlns="http://www.w3.org/2000/svg" width="30" height="30" viewBox="0 0 30 30" fill="none">
  <mask id="mask0_1961_132521" style="mask-type:luminance" maskUnits="userSpaceOnUse" x="2" y="10" width="26" height="19">
    <path fill-rule="evenodd" clip-rule="evenodd" d="M2.5 10.9922H27.4995V28.1722H2.5V10.9922Z" fill="white"/>
  </mask>
  <g mask="url(#mask0_1961_132521)">
    <path fill-rule="evenodd" clip-rule="evenodd" d="M21.9562 28.1722H8.04375C4.9875 28.1722 2.5 25.6859 2.5 22.6284V16.5347C2.5 13.4784 4.9875 10.9922 8.04375 10.9922H9.21C9.7275 10.9922 10.1475 11.4122 10.1475 11.9297C10.1475 12.4472 9.7275 12.8672 9.21 12.8672H8.04375C6.02 12.8672 4.375 14.5122 4.375 16.5347V22.6284C4.375 24.6522 6.02 26.2972 8.04375 26.2972H21.9562C23.9788 26.2972 25.625 24.6522 25.625 22.6284V16.5234C25.625 14.5072 23.985 12.8672 21.97 12.8672H20.7913C20.2738 12.8672 19.8538 12.4472 19.8538 11.9297C19.8538 11.4122 20.2738 10.9922 20.7913 10.9922H21.97C25.0187 10.9922 27.5 13.4734 27.5 16.5234V22.6284C27.5 25.6859 25.0125 28.1722 21.9562 28.1722Z" fill="#1F8A70"/>
  </g>
  <mask id="mask1_1961_132521" style="mask-type:luminance" maskUnits="userSpaceOnUse" x="14" y="2" width="2" height="18">
    <path fill-rule="evenodd" clip-rule="evenodd" d="M14.0625 2.49902H15.9375V19.4251H14.0625V2.49902Z" fill="white"/>
  </mask>
  <g mask="url(#mask1_1961_132521)">
    <path fill-rule="evenodd" clip-rule="evenodd" d="M15 19.4253C14.4825 19.4253 14.0625 19.0053 14.0625 18.4878V3.43652C14.0625 2.91902 14.4825 2.49902 15 2.49902C15.5175 2.49902 15.9375 2.91902 15.9375 3.43652V18.4878C15.9375 19.0053 15.5175 19.4253 15 19.4253Z" fill="#1F8A70"/>
  </g>
  <path fill-rule="evenodd" clip-rule="evenodd" d="M11.3571 8.03578C11.1184 8.03578 10.8784 7.94453 10.6959 7.76203C10.3296 7.39703 10.3271 6.80453 10.6934 6.43703L14.3371 2.77703C14.6884 2.42328 15.3134 2.42328 15.6646 2.77703L19.3096 6.43703C19.6746 6.80453 19.6734 7.39703 19.3071 7.76203C18.9396 8.12703 18.3471 8.12703 17.9821 7.75953L15.0009 4.76703L12.0209 7.75953C11.8384 7.94453 11.5971 8.03578 11.3571 8.03578Z" fill="#1F8A70"/>
</svg>