<svg width="20" height="20" viewBox="0 0 20 20" fill="none" xmlns="http://www.w3.org/2000/svg">
<path d="M15.8812 11.1716C15.4963 11.0006 15.0456 11.174 14.8745 11.5589C14.7035 11.9439 14.8769 12.3946 15.2618 12.5656L15.8812 11.1716ZM17.7105 13.2047L17.2071 13.7776L17.2071 13.7777L17.7105 13.2047ZM2.28948 13.2047L2.79289 13.7777L2.7929 13.7777L2.28948 13.2047ZM5.88137 5.88136C5.88137 3.60671 7.72536 1.76271 10 1.76271V0.237288C6.8829 0.237288 4.35594 2.76424 4.35594 5.88136H5.88137ZM10 1.76271C12.2747 1.76271 14.1187 3.60671 14.1187 5.88136H15.6441C15.6441 2.76424 13.1171 0.237288 10 0.237288V1.76271ZM14.1187 5.88136C14.1187 8.156 12.2747 10 10 10V11.5254C13.1171 11.5254 15.6441 8.99847 15.6441 5.88136H14.1187ZM10 10C7.72536 10 5.88137 8.156 5.88137 5.88136H4.35594C4.35594 8.99847 6.8829 11.5254 10 11.5254V10ZM15.2618 12.5656C16.0853 12.9316 16.7301 13.3585 17.2071 13.7776L18.214 12.6317C17.613 12.1037 16.8355 11.5957 15.8812 11.1716L15.2618 12.5656ZM17.2071 13.7777C17.8625 14.3535 18.2373 15.1871 18.2373 16.0636H19.7627C19.7627 14.7524 19.202 13.4998 18.2139 12.6317L17.2071 13.7777ZM18.2373 16.0636V17.4746H19.7627V16.0636H18.2373ZM18.2373 17.4746C18.2373 17.8958 17.8958 18.2373 17.4746 18.2373V19.7627C18.7383 19.7627 19.7627 18.7383 19.7627 17.4746H18.2373ZM17.4746 18.2373H2.52542V19.7627H17.4746V18.2373ZM2.52542 18.2373C2.1042 18.2373 1.76271 17.8958 1.76271 17.4746H0.237288C0.237288 18.7383 1.26174 19.7627 2.52542 19.7627V18.2373ZM1.76271 17.4746V16.0636H0.237288V17.4746H1.76271ZM1.76271 16.0636C1.76271 15.1871 2.13749 14.3535 2.79289 13.7777L1.78606 12.6317C0.797971 13.4998 0.237288 14.7524 0.237288 16.0636H1.76271ZM2.7929 13.7777C4.03126 12.6896 6.38441 11.5254 10 11.5254V10C6.05226 10 3.33037 11.2749 1.78606 12.6317L2.7929 13.7777Z" fill="#FBC100"/>
</svg>
