<svg width="16" height="11" viewBox="0 0 16 11" fill="none" xmlns="http://www.w3.org/2000/svg">
<path d="M14.9867 5.1121C14.8526 4.92504 11.6578 0.53186 7.57748 0.53186C3.49714 0.53186 0.302181 4.92504 0.168242 5.11192C0.0412502 5.28938 0.0412502 5.53008 0.168242 5.70754C0.302181 5.8946 3.49714 10.2878 7.57748 10.2878C11.6578 10.2878 14.8526 5.89457 14.9867 5.70769C15.1139 5.53026 15.1139 5.28938 14.9867 5.1121ZM7.57748 9.27855C4.57187 9.27855 1.96869 6.36271 1.1981 5.40948C1.9677 4.45541 4.56542 1.54109 7.57748 1.54109C10.5829 1.54109 13.186 4.45642 13.9569 5.41016C13.1873 6.3642 10.5895 9.27855 7.57748 9.27855Z" fill="#09454F"/>
<path d="M7.57748 2.38212C5.94049 2.38212 4.60863 3.74038 4.60863 5.40983C4.60863 7.07928 5.94049 8.43755 7.57748 8.43755C9.21448 8.43755 10.5463 7.07928 10.5463 5.40983C10.5463 3.74038 9.21448 2.38212 7.57748 2.38212ZM7.57748 7.42829C6.4861 7.42829 5.59827 6.52283 5.59827 5.40983C5.59827 4.29684 6.48613 3.39138 7.57748 3.39138C8.66884 3.39138 9.5567 4.29684 9.5567 5.40983C9.5567 6.52283 8.66887 7.42829 7.57748 7.42829Z" fill="#09454F"/>
</svg>
