<svg width="25" height="25" viewBox="0 0 25 25" fill="none" xmlns="http://www.w3.org/2000/svg">
<path d="M12.5 0C5.6073 0 0 5.6073 0 12.5C0 19.3921 5.6073 25 12.5 25C19.3921 25 25 19.3921 25 12.5C25 5.6073 19.3921 0 12.5 0ZM12.5 22.5C6.98608 22.5 2.5 18.0139 2.5 12.5C2.5 6.98608 6.98608 2.5 12.5 2.5C18.0139 2.5 22.5 6.98608 22.5 12.5C22.5 18.0139 18.0139 22.5 12.5 22.5ZM17.5 12.5C17.5 13.1903 16.9409 13.75 16.25 13.75H12.5C11.8097 13.75 11.25 13.1903 11.25 12.5V7.5C11.25 6.80969 11.8097 6.25 12.5 6.25C13.1903 6.25 13.75 6.80969 13.75 7.5V11.25H16.25C16.9409 11.25 17.5 11.8097 17.5 12.5Z" fill="#1F8A70"/>
</svg>
