<svg width="15" height="21" viewBox="0 0 15 21" fill="none" xmlns="http://www.w3.org/2000/svg">
<path d="M7.49967 0C3.36431 0 0 3.26954 0 7.28794C0 11.156 6.80458 20.1931 7.09432 20.5758L7.36472 20.9334C7.39634 20.9754 7.4467 21 7.49967 21C7.55347 21 7.6035 20.9754 7.63545 20.9334L7.90568 20.5758C8.19558 20.1931 15 11.156 15 7.28794C15 3.26954 11.6351 0 7.49967 0ZM7.49967 4.67741C8.98139 4.67741 10.1863 5.84822 10.1863 7.28794C10.1863 8.72691 8.98133 9.89846 7.49967 9.89846C6.01883 9.89846 4.81309 8.72691 4.81309 7.28794C4.81309 5.84822 6.01878 4.67741 7.49967 4.67741Z" fill="#1F8A70"/>
</svg>
