<svg width="30" height="31" viewBox="0 0 30 31" fill="none" xmlns="http://www.w3.org/2000/svg">
<path d="M23.4727 17.5101C19.8735 17.5101 16.9454 20.5358 16.9454 24.2549C16.9454 27.9741 19.8735 30.9998 23.4727 31C27.0719 30.9998 30 27.9741 30 24.2549C30 20.5358 27.0719 17.5101 23.4727 17.5101ZM23.4727 26.2005C22.4326 26.2005 21.5897 25.3294 21.5897 24.2549C21.5897 23.1805 22.4329 22.3094 23.4727 22.3094C24.5127 22.3094 25.3557 23.1805 25.3557 24.2549C25.3555 25.3294 24.5123 26.2005 23.4727 26.2005Z" fill="#707070"/>
<path d="M6.5273 13.4899C10.1265 13.4897 13.0546 10.464 13.0546 6.74483C13.0546 4.94332 12.3757 3.24943 11.1427 1.97558C9.90997 0.701492 8.27071 0 6.5273 0C6.52707 0 6.52707 0 6.52707 0C4.78367 0 3.1444 0.701492 1.91164 1.97558C0.678869 3.24943 0 4.94332 0 6.74483C0 10.464 2.92811 13.4897 6.5273 13.4899ZM6.5273 4.79929C7.56712 4.79929 8.4101 5.67036 8.4101 6.74483C8.4101 7.8193 7.56712 8.69061 6.5273 8.69061C5.48748 8.69061 4.64451 7.8193 4.64451 6.74483C4.64451 5.67036 5.48748 4.79929 6.5273 4.79929Z" fill="#707070"/>
<path d="M30 2.85374C30 2.09147 29.7127 1.37484 29.1911 0.835831C28.6695 0.296822 27.976 0 27.2383 0C26.5008 0 25.8073 0.296585 25.2852 0.835831L0.808646 26.1281C-0.268023 27.2407 -0.268023 29.0511 0.808646 30.1639C1.33027 30.7029 2.02379 31 2.76171 31C3.4994 31 4.19292 30.7032 4.71454 30.1639L29.1911 4.87166C29.7127 4.33265 30 3.61602 30 2.85374Z" fill="#707070"/>
</svg>
