<svg width="55" height="49" viewBox="0 0 55 49" fill="none" xmlns="http://www.w3.org/2000/svg">
<path d="M42.7915 0H13.8413C12.9529 0 12.2332 0.739357 12.2332 1.65035V24.6738C15.1761 19.9837 13.9494 21.9384 17.9706 15.5309C18.8858 14.0731 20.4413 13.2028 22.1332 13.2028C25.1641 13.2028 28.8148 16.0379 28.8148 20.5326C28.7968 22.5261 28.4799 24.5031 27.862 26.4133H29.7677C34.1672 26.4133 37.5822 30.3651 37.0509 34.8433L36.6717 38.045H44.8604C45.5458 38.045 46.2183 38.2419 46.8016 38.6127L52.5433 42.2644C53.6155 42.9451 55 42.1524 55 40.8616V12.5262C55 5.61889 49.5226 0 42.7915 0ZM46.75 23.1049H33.3233C32.435 23.1049 31.7152 22.3666 31.7152 21.4546C31.7152 20.5436 32.435 19.8042 33.3233 19.8042H46.75C47.6384 19.8042 48.3581 20.5436 48.3581 21.4546C48.3581 22.3666 47.6384 23.1049 46.75 23.1049ZM46.75 16.5035H33.3233C32.435 16.5035 31.7152 15.7652 31.7152 14.8532C31.7152 13.9422 32.435 13.2028 33.3233 13.2028H46.75C47.6384 13.2028 48.3581 13.9422 48.3581 14.8532C48.3581 15.7652 47.6384 16.5035 46.75 16.5035ZM46.75 9.9021H20.2759C19.3864 9.9021 18.6667 9.16385 18.6667 8.25175C18.6667 7.34076 19.3864 6.6014 20.2759 6.6014H46.75C47.6384 6.6014 48.3581 7.34076 48.3581 8.25175C48.3581 9.16385 47.6384 9.9021 46.75 9.9021Z" fill="#1F8A70"/>
<path d="M29.7677 29.714H25.4568C24.2679 29.714 23.5012 28.4323 24.0185 27.3518C25.0149 25.2545 25.5703 22.9236 25.5922 20.5018V20.4599C25.5922 18.1649 23.7297 16.6092 22.2632 16.509C21.6391 16.4606 21.0278 16.7643 20.6819 17.3155C13.8757 28.1608 14.3113 27.556 13.7715 28.1066C13.7922 28.3664 13.7854 27.2293 13.7854 46.7269C15.0213 47.2025 16.0466 48.2694 18.4186 48.2694H28.9448C30.8107 48.2694 32.3855 46.8391 32.6101 44.9368L33.8519 34.4461C34.1505 31.931 32.2373 29.714 29.7677 29.714Z" fill="#1F8A70"/>
<path d="M8.98122 26.8589H1.58189C0.707588 26.8589 0 27.584 0 28.4751V47.3838C0 48.2681 0.699316 49 1.58189 49H1.59973C6.18406 48.948 4.52987 48.9671 8.99905 48.9142C9.86444 48.9043 10.5631 48.1836 10.5631 47.2979V28.4751C10.5631 27.584 9.85456 26.8589 8.98122 26.8589Z" fill="#1F8A70"/>
</svg>
