<svg width="13" height="12" viewBox="0 0 13 12" fill="none" xmlns="http://www.w3.org/2000/svg">
<path fill-rule="evenodd" clip-rule="evenodd" d="M6.80942 0.293887L8.35342 3.39989C8.43075 3.55655 8.58009 3.66589 8.75342 3.69122L12.2101 4.19055C12.3501 4.20922 12.4761 4.28255 12.5621 4.39455C12.7234 4.60455 12.6988 4.90189 12.5054 5.08255L10.0001 7.50522C9.87275 7.62522 9.81609 7.80122 9.84942 7.97255L10.4494 11.3912C10.4914 11.6746 10.2981 11.9399 10.0148 11.9859C9.89742 12.0039 9.77742 11.9852 9.67075 11.9326L6.59209 10.3186C6.43742 10.2346 6.25209 10.2346 6.09742 10.3186L2.99609 11.9412C2.73675 12.0732 2.41942 11.9752 2.27809 11.7212C2.22409 11.6186 2.20542 11.5019 2.22409 11.3879L2.82409 7.96922C2.85409 7.79855 2.79742 7.62322 2.67342 7.50255L0.154753 5.08055C-0.0505808 4.87655 -0.0519141 4.54455 0.152753 4.33922C0.153419 4.33855 0.154086 4.33722 0.154753 4.33655C0.239419 4.25989 0.343419 4.20855 0.456086 4.18855L3.91342 3.68922C4.08609 3.66189 4.23475 3.55389 4.31342 3.39722L5.85609 0.293887C5.91809 0.167887 6.02809 0.0712201 6.16142 0.0272201C6.29542 -0.0174466 6.44209 -0.00677988 6.56809 0.0565534C6.67142 0.107887 6.75609 0.19122 6.80942 0.293887Z" fill="#F6C65C"/>
</svg>
