<svg width="24" height="24" viewBox="0 0 24 24" fill="none" xmlns="http://www.w3.org/2000/svg">
<mask id="path-1-inside-1_1098_10398" fill="white">
<path d="M20.15 8.44444H4.85C4.34 8.44444 4 8.08889 4 7.55556C4 7.02222 4.34 6.66667 4.85 6.66667H20.15C20.66 6.66667 21 7.02222 21 7.55556C21 8.08889 20.66 8.44444 20.15 8.44444Z"/>
<path d="M17.6 11.1111C17.345 11.1111 17.175 11.0222 17.005 10.8444C16.665 10.4889 16.665 9.95556 17.005 9.6L18.96 7.55556L17.005 5.51111C16.665 5.15556 16.665 4.62222 17.005 4.26667C17.345 3.91111 17.855 3.91111 18.195 4.26667L20.745 6.93333C21.085 7.28889 21.085 7.82222 20.745 8.17778L18.195 10.8444C18.025 11.0222 17.855 11.1111 17.6 11.1111Z"/>
<path d="M7.4 20C7.145 20 6.975 19.9111 6.805 19.7333L4.255 17.0667C3.915 16.7111 3.915 16.1778 4.255 15.8222L6.805 13.1556C7.145 12.8 7.655 12.8 7.995 13.1556C8.335 13.5111 8.335 14.0444 7.995 14.4L6.04 16.4444L7.995 18.4889C8.335 18.8444 8.335 19.3778 7.995 19.7333C7.825 19.9111 7.655 20 7.4 20Z"/>
<path d="M20.15 17.3333H4.85C4.34 17.3333 4 16.9778 4 16.4444C4 15.9111 4.34 15.5556 4.85 15.5556H20.15C20.66 15.5556 21 15.9111 21 16.4444C21 16.9778 20.66 17.3333 20.15 17.3333Z"/>
</mask>
<path d="M20.15 8.44444H4.85C4.34 8.44444 4 8.08889 4 7.55556C4 7.02222 4.34 6.66667 4.85 6.66667H20.15C20.66 6.66667 21 7.02222 21 7.55556C21 8.08889 20.66 8.44444 20.15 8.44444Z" fill="#1F8A70"/>
<path d="M17.6 11.1111C17.345 11.1111 17.175 11.0222 17.005 10.8444C16.665 10.4889 16.665 9.95556 17.005 9.6L18.96 7.55556L17.005 5.51111C16.665 5.15556 16.665 4.62222 17.005 4.26667C17.345 3.91111 17.855 3.91111 18.195 4.26667L20.745 6.93333C21.085 7.28889 21.085 7.82222 20.745 8.17778L18.195 10.8444C18.025 11.0222 17.855 11.1111 17.6 11.1111Z" fill="#1F8A70"/>
<path d="M7.4 20C7.145 20 6.975 19.9111 6.805 19.7333L4.255 17.0667C3.915 16.7111 3.915 16.1778 4.255 15.8222L6.805 13.1556C7.145 12.8 7.655 12.8 7.995 13.1556C8.335 13.5111 8.335 14.0444 7.995 14.4L6.04 16.4444L7.995 18.4889C8.335 18.8444 8.335 19.3778 7.995 19.7333C7.825 19.9111 7.655 20 7.4 20Z" fill="#1F8A70"/>
<path d="M20.15 17.3333H4.85C4.34 17.3333 4 16.9778 4 16.4444C4 15.9111 4.34 15.5556 4.85 15.5556H20.15C20.66 15.5556 21 15.9111 21 16.4444C21 16.9778 20.66 17.3333 20.15 17.3333Z" fill="#1F8A70"/>
<path d="M17.005 9.6L1.58655 -5.1439L1.58655 -5.1439L17.005 9.6ZM18.96 7.55556L34.3785 22.2995L48.4773 7.55556L34.3785 -7.18834L18.96 7.55556ZM17.005 5.51111L1.58655 20.255H1.58655L17.005 5.51111ZM18.195 4.26667L33.6135 -10.4772V-10.4772L18.195 4.26667ZM20.745 6.93333L5.32655 21.6772L5.32655 21.6772L20.745 6.93333ZM6.805 19.7333L22.2235 4.98944L22.2235 4.98944L6.805 19.7333ZM4.255 17.0667L-11.1635 31.8106L-11.1635 31.8106L4.255 17.0667ZM4.255 15.8222L-11.1635 1.07832L-11.1635 1.07833L4.255 15.8222ZM6.805 13.1556L22.2234 27.8995L22.2235 27.8995L6.805 13.1556ZM7.995 14.4L-7.42345 -0.343895L-7.42346 -0.343892L7.995 14.4ZM6.04 16.4444L-9.37846 1.70055L-23.4773 16.4444L-9.37845 31.1883L6.04 16.4444ZM7.995 18.4889L23.4135 3.74499V3.74499L7.995 18.4889ZM20.15 -12.8889H4.85V29.7778H20.15V-12.8889ZM4.85 -12.8889C9.73775 -12.8889 15.3289 -11.065 19.6522 -6.5439C23.8933 -2.10874 25.3333 3.25299 25.3333 7.55556H-17.3333C-17.3333 12.3915 -15.7233 18.1976 -11.1847 22.9439C-6.56387 27.7761 -0.547751 29.7778 4.85 29.7778V-12.8889ZM25.3333 7.55556C25.3333 11.8581 23.8933 17.2199 19.6522 21.655C15.3289 26.1761 9.73776 28 4.85 28V-14.6667C-0.547757 -14.6667 -6.56388 -12.665 -11.1847 -7.83278C-15.7233 -3.08652 -17.3333 2.71966 -17.3333 7.55556H25.3333ZM4.85 28H20.15V-14.6667H4.85V28ZM20.15 28C15.2622 28 9.67112 26.1761 5.3478 21.655C1.10668 17.2199 -0.333335 11.8581 -0.333335 7.55556H42.3333C42.3333 2.71965 40.7233 -3.08653 36.1847 -7.83279C31.5639 -12.665 25.5478 -14.6667 20.15 -14.6667V28ZM-0.333335 7.55556C-0.333335 3.25298 1.10669 -2.10875 5.3478 -6.5439C9.67113 -11.065 15.2622 -12.8889 20.15 -12.8889V29.7778C25.5477 29.7778 31.5639 27.7761 36.1847 22.9439C40.7233 18.1976 42.3333 12.3915 42.3333 7.55556H-0.333335ZM17.6 -10.2222C20.0878 -10.2222 23.1275 -9.75836 26.2622 -8.30144C29.2749 -6.90117 31.2916 -5.0831 32.4235 -3.89945L1.58655 25.5883C2.88841 26.9498 5.07506 28.9012 8.27907 30.3903C11.605 31.9361 14.8572 32.4444 17.6 32.4444V-10.2222ZM32.4235 -3.89945C39.97 3.99232 39.97 16.4521 32.4235 24.3439L1.58655 -5.1439C-6.63996 3.45899 -6.63996 16.9855 1.58655 25.5883L32.4235 -3.89945ZM32.4235 24.3439L34.3785 22.2995L3.54155 -7.18834L1.58655 -5.1439L32.4235 24.3439ZM34.3785 -7.18834L32.4235 -9.23279L1.58655 20.255L3.54155 22.2995L34.3785 -7.18834ZM32.4235 -9.23278C39.97 -1.34101 39.97 11.1188 32.4235 19.0106L1.58655 -10.4772C-6.63996 -1.87434 -6.63996 11.6521 1.58655 20.255L32.4235 -9.23278ZM32.4235 19.0106C28.8046 22.795 23.5436 25.3333 17.6 25.3333C11.6564 25.3333 6.39542 22.795 2.77655 19.0106L33.6135 -10.4772C24.8719 -19.6187 10.3281 -19.6187 1.58655 -10.4772L32.4235 19.0106ZM2.77655 19.0106L5.32655 21.6772L36.1635 -7.81056L33.6135 -10.4772L2.77655 19.0106ZM5.32655 21.6772C-2.21996 13.7855 -2.21996 1.32566 5.32655 -6.56612L36.1635 22.9217C44.39 14.3188 44.39 0.792323 36.1635 -7.81056L5.32655 21.6772ZM5.32655 -6.56612L2.77655 -3.89945L33.6135 25.5883L36.1635 22.9217L5.32655 -6.56612ZM2.77655 -3.89945C3.90841 -5.0831 5.92506 -6.90117 8.93782 -8.30144C12.0725 -9.75836 15.1122 -10.2222 17.6 -10.2222V32.4444C20.3428 32.4444 23.595 31.9361 26.9209 30.3903C30.1249 28.9012 32.3116 26.9498 33.6135 25.5883L2.77655 -3.89945ZM7.4 -1.33333C9.8878 -1.33333 12.9275 -0.869473 16.0622 0.587449C19.0749 1.98772 21.0916 3.80579 22.2235 4.98944L-8.61345 34.4772C-7.31159 35.8387 -5.12494 37.7901 -1.92092 39.2792C1.40499 40.825 4.6572 41.3333 7.4 41.3333V-1.33333ZM22.2235 4.98944L19.6735 2.32277L-11.1635 31.8106L-8.61345 34.4772L22.2235 4.98944ZM19.6735 2.32277C27.22 10.2145 27.22 22.6743 19.6735 30.5661L-11.1635 1.07833C-19.39 9.68121 -19.39 23.2077 -11.1635 31.8106L19.6735 2.32277ZM19.6735 30.5661L22.2234 27.8995L-8.61345 -1.58834L-11.1635 1.07832L19.6735 30.5661ZM22.2235 27.8995C18.6046 31.6839 13.3436 34.2222 7.4 34.2222C1.45641 34.2222 -3.8046 31.6839 -7.42345 27.8995L23.4135 -1.58834C14.6719 -10.7298 0.128081 -10.7298 -8.61345 -1.58834L22.2235 27.8995ZM-7.42345 27.8995C-14.97 20.0077 -14.97 7.54788 -7.42345 -0.343895L23.4135 29.1439C31.64 20.541 31.64 7.01455 23.4135 -1.58834L-7.42345 27.8995ZM-7.42346 -0.343892L-9.37846 1.70055L21.4585 31.1883L23.4135 29.1439L-7.42346 -0.343892ZM-9.37845 31.1883L-7.42345 33.2328L23.4135 3.74499L21.4585 1.70055L-9.37845 31.1883ZM-7.42345 33.2328C-14.97 25.341 -14.97 12.8812 -7.42345 4.98944L23.4135 34.4772C31.64 25.8743 31.64 12.3479 23.4135 3.74499L-7.42345 33.2328ZM-7.42345 4.98944C-6.29159 3.80579 -4.27494 1.98772 -1.26217 0.587449C1.87249 -0.869473 4.9122 -1.33333 7.4 -1.33333V41.3333C10.1428 41.3333 13.395 40.825 16.7209 39.2792C19.9249 37.7901 22.1116 35.8387 23.4135 34.4772L-7.42345 4.98944ZM20.15 -4H4.85V38.6667H20.15V-4ZM4.85 -4C9.73776 -4 15.3289 -2.17613 19.6522 2.345C23.8933 6.78015 25.3333 12.1419 25.3333 16.4444H-17.3333C-17.3333 21.2803 -15.7233 27.0865 -11.1847 31.8328C-6.56389 36.665 -0.547762 38.6667 4.85 38.6667V-4ZM25.3333 16.4444C25.3333 20.747 23.8933 26.1087 19.6522 30.5439C15.3289 35.065 9.73776 36.8889 4.85 36.8889V-5.77778C-0.547762 -5.77778 -6.56389 -3.77613 -11.1847 1.05611C-15.7233 5.80237 -17.3333 11.6085 -17.3333 16.4444H25.3333ZM4.85 36.8889H20.15V-5.77778H4.85V36.8889ZM20.15 36.8889C15.2622 36.8889 9.67112 35.065 5.3478 30.5439C1.10668 26.1087 -0.333335 20.747 -0.333335 16.4444H42.3333C42.3333 11.6085 40.7233 5.80237 36.1847 1.0561C31.5639 -3.77613 25.5478 -5.77778 20.15 -5.77778V36.8889ZM-0.333335 16.4444C-0.333335 12.1419 1.10668 6.78014 5.3478 2.34499C9.67112 -2.17613 15.2622 -4 20.15 -4V38.6667C25.5478 38.6667 31.5639 36.665 36.1847 31.8328C40.7233 27.0865 42.3333 21.2803 42.3333 16.4444H-0.333335Z" fill="#1F8A70" mask="url(#path-1-inside-1_1098_10398)"/>
</svg>
