<svg width="86" height="86" viewBox="0 0 86 86" fill="none" xmlns="http://www.w3.org/2000/svg">
<path fill-rule="evenodd" clip-rule="evenodd" d="M28.4559 64.1649C23.7574 64.1649 19.7796 60.4974 19.3979 55.806L16.13 16.941L10.7536 16.0134C9.29451 15.7565 8.32057 14.3759 8.5703 12.9168C8.82716 11.4576 10.2364 10.5086 11.6634 10.737L19.0839 12.0213C20.2791 12.2318 21.1888 13.2236 21.2922 14.4365L22.1306 24.4293C73.0612 24.4507 73.2253 24.4757 73.4715 24.5042C75.4586 24.7932 77.2067 25.8313 78.3983 27.4296C79.5899 29.0243 80.0893 30.9901 79.8039 32.9594L76.4183 56.3555C75.7797 60.8078 71.9125 64.1649 67.4173 64.1649H67.3995H28.4845H28.4559Z" fill="#1F8A70"/>
<path fill-rule="evenodd" clip-rule="evenodd" d="M26.9189 73.8574C27.9928 73.8574 28.8597 74.7243 28.8597 75.7982C28.8597 76.872 27.9928 77.7425 26.9189 77.7425C25.8415 77.7425 24.9746 76.872 24.9746 75.7982C24.9746 74.7243 25.8415 73.8574 26.9189 73.8574Z" fill="#1F8A70"/>
<mask id="mask0_1075_103873" style="mask-type:luminance" maskUnits="userSpaceOnUse" x="24" y="73" width="5" height="5">
<path fill-rule="evenodd" clip-rule="evenodd" d="M24.9766 75.7923C24.9766 76.8697 25.8435 77.7402 26.9245 77.7402C27.9983 77.7402 28.8652 76.8697 28.8652 75.7923C28.8652 74.7185 27.9983 73.8516 26.9245 73.8516C25.8435 73.8516 24.9766 74.7185 24.9766 75.7923Z" fill="white"/>
</mask>
<g mask="url(#mask0_1075_103873)">
<path fill-rule="evenodd" clip-rule="evenodd" d="M7.14453 95.5764H46.7053V56.0156H7.14453V95.5764Z" fill="#1F8A70"/>
</g>
<path fill-rule="evenodd" clip-rule="evenodd" d="M26.9207 75.0607C26.5175 75.0607 26.1893 75.3889 26.1893 75.7921C26.1893 76.6019 27.6556 76.6019 27.6556 75.7921C27.6556 75.3889 27.3238 75.0607 26.9207 75.0607ZM26.9192 80.4142C24.3719 80.4142 22.3027 78.3414 22.3027 75.7942C22.3027 73.2469 24.3719 71.1777 26.9192 71.1777C29.4664 71.1777 31.5392 73.2469 31.5392 75.7942C31.5392 78.3414 29.4664 80.4142 26.9192 80.4142Z" fill="#1F8A70"/>
<path fill-rule="evenodd" clip-rule="evenodd" d="M67.167 73.8535C68.2408 73.8535 69.1113 74.7204 69.1113 75.7943C69.1113 76.8681 68.2408 77.7386 67.167 77.7386C66.0896 77.7386 65.2227 76.8681 65.2227 75.7943C65.2227 74.7204 66.0896 73.8535 67.167 73.8535Z" fill="#1F8A70"/>
<mask id="mask1_1075_103873" style="mask-type:luminance" maskUnits="userSpaceOnUse" x="65" y="73" width="5" height="5">
<path fill-rule="evenodd" clip-rule="evenodd" d="M65.2207 75.7923C65.2207 76.8697 66.0876 77.7402 67.165 77.7402C68.2353 77.7402 69.1094 76.8697 69.1094 75.7923C69.1094 74.7185 68.2353 73.8516 67.165 73.8516C66.0876 73.8516 65.2207 74.7185 65.2207 75.7923Z" fill="white"/>
</mask>
<g mask="url(#mask1_1075_103873)">
<path fill-rule="evenodd" clip-rule="evenodd" d="M47.3828 95.5764H86.9471V56.0156H47.3828V95.5764Z" fill="#1F8A70"/>
</g>
<path fill-rule="evenodd" clip-rule="evenodd" d="M67.1611 75.0652C66.7615 75.0652 66.4333 75.3934 66.4333 75.7966C66.4369 76.6136 67.8996 76.6064 67.896 75.7966C67.896 75.3934 67.5642 75.0652 67.1611 75.0652ZM67.1614 80.4161C64.6141 80.4161 62.5449 78.3434 62.5449 75.7961C62.5449 73.2489 64.6141 71.1797 67.1614 71.1797C69.7122 71.1797 71.7849 73.2489 71.7849 75.7961C71.7849 78.3434 69.7122 80.4161 67.1614 80.4161Z" fill="#1F8A70"/>
<circle cx="66.992" cy="28.1443" r="17.4414" fill="#C5FFF1" stroke="white" stroke-width="2.37838"/>
<path d="M75.068 24.0733L74.2603 23.2474C73.9276 22.9071 73.3844 22.9071 73.0488 23.2474L64.58 31.9108L60.1437 27.3741C59.811 27.0338 59.2678 27.0338 58.9322 27.3741L58.1245 28.2C57.7918 28.5403 57.7918 29.0957 58.1245 29.4389L63.9714 35.418C64.1392 35.5896 64.3553 35.6769 64.5743 35.6769C64.7933 35.6769 65.0123 35.5896 65.1772 35.418L75.0594 25.3122C75.4007 24.9661 75.4007 24.4136 75.068 24.0733Z" fill="#1F8A70"/>
</svg>
