<svg width="24" height="24" viewBox="0 0 24 24" fill="none" xmlns="http://www.w3.org/2000/svg">
<path d="M20.15 8.44444H4.85C4.34 8.44444 4 8.08889 4 7.55556C4 7.02222 4.34 6.66667 4.85 6.66667H20.15C20.66 6.66667 21 7.02222 21 7.55556C21 8.08889 20.66 8.44444 20.15 8.44444Z" fill="white"/>
<path d="M17.6 11.1111C17.345 11.1111 17.175 11.0222 17.005 10.8444C16.665 10.4889 16.665 9.95556 17.005 9.6L18.96 7.55556L17.005 5.51111C16.665 5.15556 16.665 4.62222 17.005 4.26667C17.345 3.91111 17.855 3.91111 18.195 4.26667L20.745 6.93333C21.085 7.28889 21.085 7.82222 20.745 8.17778L18.195 10.8444C18.025 11.0222 17.855 11.1111 17.6 11.1111Z" fill="white"/>
<path d="M7.4 20C7.145 20 6.975 19.9111 6.805 19.7333L4.255 17.0667C3.915 16.7111 3.915 16.1778 4.255 15.8222L6.805 13.1556C7.145 12.8 7.655 12.8 7.995 13.1556C8.335 13.5111 8.335 14.0444 7.995 14.4L6.04 16.4444L7.995 18.4889C8.335 18.8444 8.335 19.3778 7.995 19.7333C7.825 19.9111 7.655 20 7.4 20Z" fill="white"/>
<path d="M20.15 17.3333H4.85C4.34 17.3333 4 16.9778 4 16.4444C4 15.9111 4.34 15.5556 4.85 15.5556H20.15C20.66 15.5556 21 15.9111 21 16.4444C21 16.9778 20.66 17.3333 20.15 17.3333Z" fill="white"/>
</svg>
